<svg width="15" height="19" viewBox="0 0 15 19" fill="none" xmlns="http://www.w3.org/2000/svg">
<path d="M0.375 4.20669H2.76552V6.59721H0.375V4.20669Z" fill="white"/>
<path d="M12.3276 4.20669H14.7181V6.59721H12.3276V4.20669Z" fill="white"/>
<path d="M5.49755 3.18218H9.59559V5.5727H5.49755V3.18218Z" fill="white"/>
<path d="M6.52206 7.28022H8.57108V14.1103H6.52206V7.28022Z" fill="white"/>
<path d="M11.3031 8.98773H13.3521V14.1103H11.3031V8.98773Z" fill="white"/>
<path d="M1.74101 8.98773H3.79003V14.1103H1.74101V8.98773Z" fill="white"/>
<path d="M4.47304 11.3783H6.52206V13.4273H4.47304V11.3783Z" fill="white"/>
<path d="M9.25409 11.3783H11.3031V13.4273H9.25409V11.3783Z" fill="white"/>
<path d="M8.91258 1.81617H9.59559V4.20669H8.91258V1.81617Z" fill="white"/>
<path d="M5.49755 1.81617H6.18056V4.20669H5.49755V1.81617Z" fill="white"/>
<path d="M7.20507 0.791656H7.88807V3.18218H7.20507V0.791656Z" fill="white"/>
<path d="M7.54657 18.2083L13.3521 14.1103H1.74101L7.54657 18.2083Z" fill="white"/>
</svg>
