<svg width="243" height="292" viewBox="0 0 243 292" fill="none" xmlns="http://www.w3.org/2000/svg">
<path fill-rule="evenodd" clip-rule="evenodd" d="M174 23.5C174 10.5213 163.479 0 150.5 0H118C104.745 0 94 10.7452 94 24V56C94 69.2548 104.745 80 118 80H139.5C152.479 80 163 90.5213 163 103.5C163 116.479 173.521 127 186.5 127H219C232.255 127 243 116.255 243 103V71C243 57.7452 232.255 47 219 47H197.5C184.521 47 174 36.4787 174 23.5ZM-74 104C-74 90.7452 -63.2548 80 -50 80H-18C-4.74517 80 6 90.7452 6 104V125C6 138.255 16.7452 149 30 149H53C66.2548 149 77 159.745 77 173V205C77 218.255 66.2548 229 53 229H30C16.7452 229 6 239.745 6 253V268C6 281.255 -4.74517 292 -18 292H-50C-63.2548 292 -74 281.255 -74 268V236C-74 222.745 -63.2548 212 -50 212H-27C-13.7452 212 -3 201.255 -3 188V184C-3 170.745 -13.7452 160 -27 160H-50C-63.2548 160 -74 149.255 -74 136V104Z" fill="#A9D8BB"/>
</svg>
