<svg width="317" height="293" viewBox="0 0 317 293" fill="none" xmlns="http://www.w3.org/2000/svg">
<path fill-rule="evenodd" clip-rule="evenodd" d="M248 24.1772C248 11.1986 237.479 0.677246 224.5 0.677246H192C178.745 0.677246 168 11.4224 168 24.6772V56.6772C168 69.9321 178.745 80.6772 192 80.6772H213.5C226.479 80.6772 237 91.1986 237 104.177C237 117.156 247.521 127.677 260.5 127.677H293C306.255 127.677 317 116.932 317 103.677V71.6772C317 58.4224 306.255 47.6772 293 47.6772H271.5C258.521 47.6772 248 37.1559 248 24.1772ZM0 104.677C0 91.4224 10.7452 80.6772 24 80.6772H56C69.2548 80.6772 80 91.4224 80 104.677V125.677C80 138.932 90.7452 149.677 104 149.677H127C140.255 149.677 151 160.422 151 173.677V205.677C151 218.932 140.255 229.677 127 229.677H104C90.7452 229.677 80 240.422 80 253.677V268.677C80 281.932 69.2548 292.677 56 292.677H24C10.7452 292.677 0 281.932 0 268.677V236.677C0 223.422 10.7452 212.677 24 212.677H47C60.2548 212.677 71 201.932 71 188.677V184.677C71 171.422 60.2548 160.677 47 160.677H24C10.7452 160.677 0 149.932 0 136.677V104.677Z" fill="#A9D8BB"/>
</svg>
