<svg width="21" height="22" viewBox="0 0 21 22" fill="none" xmlns="http://www.w3.org/2000/svg">
<path fill-rule="evenodd" clip-rule="evenodd" d="M16.1686 7.90341L10.8048 4.80664L5.44104 7.90341V14.097L10.8048 17.1937L16.1686 14.097V7.90341ZM10.6694 7.66526H10.9416V8.58075H11.35V8.05761H11.6222V8.58075V8.9731V9.49623H9.98878V8.9731V8.58075V8.05761H10.261V8.58075H10.6694V7.66526ZM8.8998 8.9731H7.94695V9.88858H8.8998V8.9731ZM13.6641 8.9731H12.7112V9.88858H13.6641V8.9731ZM11.2139 10.1502H10.3971V11.7196H9.58041V12.5043H10.3971V12.7658H9.30817V10.8041H8.49144V12.7658L10.8055 14.3352L13.1196 12.7658V10.8041H12.3028V11.7196H11.4861V12.5043H12.3028V12.7658H11.2139V10.1502Z" fill="#87F0E5"/>
</svg>
