<svg width="14" height="14" viewBox="0 0 14 14" fill="none" xmlns="http://www.w3.org/2000/svg">
<path d="M11.2708 8.0923C11.5368 7.82678 11.7396 7.50488 11.8644 7.15041C11.9891 6.79595 12.0325 6.41798 11.9914 6.04447C11.9504 5.67096 11.8258 5.31146 11.627 4.99256C11.4282 4.67366 11.1602 4.40352 10.8429 4.20213C10.039 3.67038 8.96325 3.66638 8.15141 4.19013C7.44754 4.64192 7.05962 5.34559 6.99163 6.07325C6.93964 6.601 6.73968 7.09277 6.37175 7.4606L6.35975 7.47259C5.89584 7.93637 5.89584 8.64404 6.33176 9.07584L6.72768 9.47165C6.93721 9.68099 7.22131 9.79858 7.51753 9.79858C7.81375 9.79858 8.09785 9.68099 8.30738 9.47165C8.6953 9.08384 9.20721 8.87194 9.7631 8.81196C10.311 8.75199 10.8469 8.5121 11.2708 8.0923ZM5.71188 10.943C5.81985 11.1669 5.78386 11.4387 5.5959 11.6226C5.51449 11.7053 5.41073 11.7623 5.29736 11.7868C5.18398 11.8113 5.06591 11.8022 4.95763 11.7606C4.84936 11.719 4.75558 11.6467 4.6878 11.5526C4.62003 11.4585 4.5812 11.3467 4.57609 11.2308C4.46021 11.2257 4.34833 11.1869 4.25419 11.1191C4.16006 11.0514 4.08774 10.9576 4.04613 10.8494C4.00452 10.7411 3.99541 10.6231 4.01993 10.5098C4.04445 10.3964 4.10153 10.2927 4.18417 10.2113C4.36813 10.0274 4.64408 9.98741 4.86404 10.0954L5.85585 9.12382C5.91184 9.19978 5.97582 9.28774 6.04781 9.35971L6.44373 9.75552C6.52772 9.83548 6.6077 9.90345 6.71168 9.96342L5.71188 10.943Z" fill="#87F0E5"/>
<path d="M1.50836 8.3222C1.20654 7.88029 1.20654 7.36982 1.20654 6.86315C1.81382 7.2441 2.41745 7.62506 2.72291 8.07077L2.84291 8.2841L2.84291 7.41553C2.29745 7.07267 1.78109 6.7222 1.50836 6.3222C1.20654 5.88029 1.20654 5.36982 1.20654 4.86315C1.81382 5.2441 2.41745 5.62506 2.72291 6.07077L2.84291 6.29172V5.41553C2.29745 5.07267 1.78109 4.7222 1.50836 4.3222C1.20654 3.88029 1.20654 3.36982 1.20654 2.86315C1.81382 3.2441 2.41745 3.62505 2.72291 4.07077C2.75927 4.1241 2.792 4.18125 2.82109 4.2422C2.75927 4.00601 2.71927 3.78506 2.71563 3.55648C2.712 2.98125 2.952 2.39077 3.192 1.80029C3.44291 2.3641 3.69382 2.93172 3.69745 3.50696C3.70109 3.74696 3.66109 3.99077 3.59563 4.23077C3.62472 4.17744 3.65382 4.1241 3.69018 4.07077C3.99563 3.62505 4.59927 3.2441 5.20654 2.86315C5.20654 3.36982 5.20654 3.88029 4.90473 4.3222C4.632 4.7222 4.11563 5.07267 3.57018 5.41553L3.57018 6.29172L3.69018 6.07077C3.99563 5.62506 4.59927 5.2441 5.20654 4.86315C5.20654 5.36982 5.20654 5.88029 4.90473 6.3222C4.632 6.7222 4.11563 7.07267 3.57018 7.41553V8.2841L3.69018 8.07077C3.99563 7.62506 4.59927 7.2441 5.20654 6.86315C5.20654 7.36982 5.20654 7.88029 4.90473 8.3222C4.632 8.7222 4.11563 9.07267 3.57018 9.41553V11.8003H2.84291V9.41553C2.29745 9.07267 1.78109 8.7222 1.50836 8.3222Z" fill="#87F0E5"/>
</svg>
