<svg width="14" height="14" viewBox="0 0 14 14" fill="none" xmlns="http://www.w3.org/2000/svg">
<g clip-path="url(#clip0_3008_3112)">
<path fill-rule="evenodd" clip-rule="evenodd" d="M10.7782 3.45246C10.0766 2.98363 9.25165 2.7334 8.40779 2.7334C7.2762 2.7334 6.19095 3.18292 5.3908 3.98308C4.59064 4.78323 4.14112 5.86847 4.14112 7.00007C4.14112 7.84393 4.39136 8.66885 4.86018 9.3705C5.32901 10.0721 5.99537 10.619 6.775 10.942C7.55464 11.2649 8.41252 11.3494 9.24017 11.1847C10.0678 11.0201 10.8281 10.6138 11.4248 10.0171C12.0215 9.42035 12.4278 8.6601 12.5925 7.83245C12.7571 7.0048 12.6726 6.14691 12.3497 5.36728C12.0267 4.58765 11.4799 3.92129 10.7782 3.45246ZM2.59605 8.84542C2.21405 8.30584 2.00854 7.66118 2.00779 7.00007C2.00854 6.33895 2.21405 5.69429 2.59605 5.15471C2.97806 4.61512 3.51781 4.2071 4.14112 3.98673V2.87207C3.22806 3.11071 2.41988 3.64534 1.84307 4.39228C1.26626 5.13923 0.953369 6.05633 0.953369 7.00007C0.953369 7.9438 1.26626 8.8609 1.84307 9.60785C2.41988 10.3548 3.22806 10.8894 4.14112 11.1281V10.0134C3.51781 9.79303 2.97806 9.38501 2.59605 8.84542ZM8.32048 4.43337H8.52178V5.13795H8.82374V4.73533H9.02505V5.13795V5.43991V5.84252H7.81721V5.43991V5.13795V4.73533H8.01851V5.13795H8.32048V4.43337ZM7.01198 5.43991H6.3074V6.14448H7.01198V5.43991ZM10.5349 5.43991H9.83028V6.14448H10.5349V5.43991ZM8.72309 6.34579H8.11917V7.55363H7.51525V8.15756H8.11917V8.35886H7.31394V6.84906H6.71002V8.35886L8.42113 9.56671L10.1322 8.35886V6.84906H9.52832V7.55363H8.9244V8.15756H9.52832V8.35886H8.72309V6.34579Z" fill="#87F0E5"/>
</g>
<defs>
<clipPath id="clip0_3008_3112">
<rect width="12.8" height="12.8" fill="white" transform="translate(0.406494 0.600098)"/>
</clipPath>
</defs>
</svg>
