<svg width="21" height="21" viewBox="0 0 21 21" fill="none" xmlns="http://www.w3.org/2000/svg">
<path d="M15.3205 12.9107H5.67766L2.46338 16.125V3.26782C2.46338 3.0547 2.54804 2.85031 2.69874 2.69961C2.84944 2.54891 3.05383 2.46425 3.26695 2.46425H15.3205C15.5336 2.46425 15.738 2.54891 15.8887 2.69961C16.0394 2.85031 16.1241 3.0547 16.1241 3.26782V12.1071C16.1241 12.3202 16.0394 12.5246 15.8887 12.6753C15.738 12.826 15.5336 12.9107 15.3205 12.9107ZM19.3384 8.08925V19.3392L16.1241 16.125H7.28481C7.07169 16.125 6.8673 16.0403 6.7166 15.8896C6.5659 15.7389 6.48124 15.5345 6.48124 15.3214V14.5178H17.7312V7.28568H18.5348C18.7479 7.28568 18.9523 7.37034 19.103 7.52104C19.2537 7.67174 19.3384 7.87613 19.3384 8.08925ZM7.43749 4.07139C6.73838 4.07139 6.17588 4.23211 5.74195 4.5455C5.32409 4.87496 5.11516 5.333 5.1232 5.96782L5.13124 5.99193H6.68213C6.69016 5.75086 6.76249 5.56603 6.90713 5.43746C7.05593 5.31407 7.24422 5.24845 7.43749 5.25264C7.68659 5.25264 7.89552 5.333 8.04016 5.47764C8.18481 5.63032 8.24909 5.83925 8.24909 6.08032C8.24909 6.33746 8.19284 6.55443 8.06427 6.73925C7.95177 6.92407 7.78302 7.08478 7.57409 7.21336C7.16427 7.48657 6.88302 7.72764 6.73034 7.94461C6.56963 8.15353 6.48124 8.49103 6.48124 8.89282H8.08838C8.08838 8.64371 8.12052 8.44282 8.19284 8.29818C8.26516 8.15353 8.40177 8.00889 8.60266 7.88032C8.96427 7.68746 9.26159 7.45443 9.49463 7.133C9.72766 6.81157 9.8482 6.48211 9.8482 6.08032C9.8482 5.46961 9.63124 4.97943 9.19731 4.61782C8.77141 4.25621 8.18481 4.07139 7.43749 4.07139ZM6.48124 9.69639V11.3035H8.08838V9.69639H6.48124ZM11.3027 11.3035H12.9098V9.69639H11.3027V11.3035ZM11.3027 4.07139V8.89282H12.9098V4.07139H11.3027Z" fill="white"/>
</svg>
