<svg width="19" height="22" viewBox="0 0 19 22" fill="none" xmlns="http://www.w3.org/2000/svg">
<path d="M0 4.31373H3.01961V7.33333H0V4.31373Z" fill="#393939"/>
<path d="M15.098 4.31373H18.1176V7.33333H15.098V4.31373Z" fill="#393939"/>
<path d="M6.47059 3.01961H11.6471V6.03922H6.47059V3.01961Z" fill="#393939"/>
<path d="M7.76471 8.19608H10.3529V16.8235H7.76471V8.19608Z" fill="#393939"/>
<path d="M13.8039 10.3529H16.3922V16.8235H13.8039V10.3529Z" fill="#393939"/>
<path d="M1.72549 10.3529H4.31373V16.8235H1.72549V10.3529Z" fill="#393939"/>
<path d="M5.17647 13.3725H7.76471V15.9608H5.17647V13.3725Z" fill="#393939"/>
<path d="M11.2157 13.3725H13.8039V15.9608H11.2157V13.3725Z" fill="#393939"/>
<path d="M10.7843 1.29412H11.6471V4.31373H10.7843V1.29412Z" fill="#393939"/>
<path d="M6.47059 1.29412H7.33333V4.31373H6.47059V1.29412Z" fill="#393939"/>
<path d="M8.62745 0H9.4902V3.01961H8.62745V0Z" fill="#393939"/>
<path d="M9.05882 22L16.3922 16.8235H1.72549L9.05882 22Z" fill="#393939"/>
</svg>
