<svg width="21" height="21" viewBox="0 0 21 21" fill="none" xmlns="http://www.w3.org/2000/svg">
<path d="M10.4995 16.896H19.4536M10.4995 16.896C10.4995 17.148 10.4499 17.3976 10.3535 17.6304C10.257 17.8632 10.1157 18.0747 9.93748 18.2529C9.75929 18.4311 9.54775 18.5725 9.31494 18.6689C9.08212 18.7653 8.83259 18.815 8.5806 18.815C8.3286 18.815 8.07907 18.7653 7.84625 18.6689C7.61344 18.5725 7.4019 18.4311 7.22371 18.2529C7.04552 18.0747 6.90417 17.8632 6.80774 17.6304C6.7113 17.3976 6.66167 17.148 6.66167 16.896C6.66167 16.644 6.7113 16.3945 6.80774 16.1617C6.90417 15.9289 7.04552 15.7173 7.22371 15.5391C7.4019 15.361 7.61344 15.2196 7.84625 15.1232C8.07907 15.0267 8.3286 14.9771 8.5806 14.9771C8.83259 14.9771 9.08212 15.0267 9.31494 15.1232C9.54775 15.2196 9.75929 15.361 9.93748 15.5391C10.1157 15.7173 10.257 15.9289 10.3535 16.1617C10.4499 16.3945 10.4995 16.644 10.4995 16.896ZM19.4536 16.896L16.8955 14.3379M19.4536 16.896L16.8955 19.4541M5.3833 3.4649C5.3833 3.97384 5.58547 4.46192 5.94534 4.82179C6.30521 5.18166 6.7933 5.38383 7.30223 5.38383C7.81116 5.38383 8.29925 5.18166 8.65912 4.82179C9.01899 4.46192 9.22116 3.97384 9.22116 3.4649C9.22116 2.95597 9.01899 2.46788 8.65912 2.10802C8.29925 1.74815 7.81116 1.54597 7.30223 1.54597C6.7933 1.54597 6.30521 1.74815 5.94534 2.10802C5.58547 2.46788 5.3833 2.95597 5.3833 3.4649ZM10.4995 9.86087C10.4995 10.3698 10.7017 10.8579 11.0616 11.2178C11.4214 11.5776 11.9095 11.7798 12.4185 11.7798C12.9274 11.7798 13.4155 11.5776 13.7753 11.2178C14.1352 10.8579 14.3374 10.3698 14.3374 9.86087C14.3374 9.35194 14.1352 8.86385 13.7753 8.50399C13.4155 8.14412 12.9274 7.94195 12.4185 7.94195C11.9095 7.94195 11.4214 8.14412 11.0616 8.50399C10.7017 8.86385 10.4995 9.35194 10.4995 9.86087Z" stroke="white" stroke-width="1.37755" stroke-linecap="round" stroke-linejoin="round"/>
<path d="M10.4995 9.86083H5.06368C4.14281 9.87905 3.26581 10.2577 2.62101 10.9154C1.97621 11.573 1.61502 12.4574 1.61502 13.3784C1.61502 14.2995 1.97621 15.1838 2.62101 15.8415C3.26581 16.4991 4.14281 16.8778 5.06368 16.896H6.66163M14.3373 9.86083H16.2563C17.1044 9.86083 17.9179 9.5239 18.5176 8.92416C19.1173 8.32442 19.4543 7.511 19.4543 6.66284C19.4543 5.81469 19.1173 5.00127 18.5176 4.40153C17.9179 3.80179 17.1044 3.46486 16.2563 3.46486H9.21837M5.38327 3.46486H1.54541" stroke="white" stroke-width="1.37755" stroke-linecap="round" stroke-linejoin="round"/>
</svg>
