<svg width="24" height="24" viewBox="0 0 24 24" fill="none" xmlns="http://www.w3.org/2000/svg">
<path d="M11.9997 19.9595H23.1425M11.9997 19.9595C11.9997 20.2731 11.9379 20.5836 11.8179 20.8733C11.6979 21.163 11.522 21.4263 11.3002 21.648C11.0785 21.8698 10.8152 22.0457 10.5255 22.1657C10.2358 22.2857 9.92527 22.3475 9.61167 22.3475C9.29807 22.3475 8.98755 22.2857 8.69782 22.1657C8.4081 22.0457 8.14484 21.8698 7.9231 21.648C7.70135 21.4263 7.52545 21.163 7.40545 20.8733C7.28544 20.5836 7.22367 20.2731 7.22367 19.9595C7.22367 19.6459 7.28544 19.3353 7.40545 19.0456C7.52545 18.7559 7.70135 18.4926 7.9231 18.2709C8.14484 18.0491 8.4081 17.8732 8.69782 17.7532C8.98755 17.6332 9.29807 17.5715 9.61167 17.5715C9.92527 17.5715 10.2358 17.6332 10.5255 17.7532C10.8152 17.8732 11.0785 18.0491 11.3002 18.2709C11.522 18.4926 11.6979 18.7559 11.8179 19.0456C11.9379 19.3353 11.9997 19.6459 11.9997 19.9595ZM23.1425 19.9595L19.9591 16.776M23.1425 19.9595L19.9591 23.1429M5.63281 3.24518C5.63281 3.87851 5.8844 4.48591 6.33224 4.93375C6.78008 5.38159 7.38748 5.63318 8.02081 5.63318C8.65415 5.63318 9.26155 5.38159 9.70938 4.93375C10.1572 4.48591 10.4088 3.87851 10.4088 3.24518C10.4088 2.61184 10.1572 2.00444 9.70938 1.55661C9.26155 1.10877 8.65415 0.857178 8.02081 0.857178C7.38748 0.857178 6.78008 1.10877 6.33224 1.55661C5.8844 2.00444 5.63281 2.61184 5.63281 3.24518ZM11.9997 11.2046C11.9997 11.8379 12.2513 12.4453 12.6991 12.8932C13.1469 13.341 13.7543 13.5926 14.3877 13.5926C15.021 13.5926 15.6284 13.341 16.0762 12.8932C16.5241 12.4453 16.7757 11.8379 16.7757 11.2046C16.7757 10.5713 16.5241 9.96387 16.0762 9.51604C15.6284 9.0682 15.021 8.81661 14.3877 8.81661C13.7543 8.81661 13.1469 9.0682 12.6991 9.51604C12.2513 9.96387 11.9997 10.5713 11.9997 11.2046Z" stroke="#393939" stroke-width="1.71429" stroke-linecap="round" stroke-linejoin="round"/>
<path d="M11.9998 11.2045H5.23522C4.08925 11.2272 2.99788 11.6984 2.19546 12.5168C1.39304 13.3353 0.943564 14.4358 0.943564 15.582C0.943564 16.7282 1.39304 17.8287 2.19546 18.6471C2.99788 19.4656 4.08925 19.9367 5.23522 19.9594H7.22379M16.7758 11.2045H19.1638C20.2193 11.2045 21.2315 10.7853 21.9779 10.0389C22.7242 9.29257 23.1435 8.28032 23.1435 7.22483C23.1435 6.16935 22.7242 5.15709 21.9779 4.41075C21.2315 3.66441 20.2193 3.24512 19.1638 3.24512H10.4055M5.63293 3.24512H0.856934" stroke="#393939" stroke-width="1.71429" stroke-linecap="round" stroke-linejoin="round"/>
</svg>
