<svg xmlns="http://www.w3.org/2000/svg" viewBox="0 0 100 100" width="100" height="100" preserveAspectRatio="none"><defs><radialGradient id="outer5g-hi"><stop offset="0" stop-color="#9cba6c" stop-opacity="0.34"/><stop offset="1" stop-color="#9cba6c" stop-opacity="0"/></radialGradient><radialGradient id="outer5g-lo"><stop offset="0" stop-color="#6d8b43" stop-opacity="0.30600000000000005"/><stop offset="1" stop-color="#6d8b43" stop-opacity="0"/></radialGradient><pattern id="outer5g-mottle" width="50" height="50" patternUnits="userSpaceOnUse"><circle cx="7.8" cy="2.3" r="14.2" fill="url(#outer5g-hi)"/><circle cx="7.8" cy="52.3" r="14.2" fill="url(#outer5g-hi)"/><circle cx="57.8" cy="2.3" r="14.2" fill="url(#outer5g-hi)"/><circle cx="57.8" cy="52.3" r="14.2" fill="url(#outer5g-hi)"/><circle cx="23.4" cy="1.1" r="17" fill="url(#outer5g-lo)"/><circle cx="23.4" cy="51.1" r="17" fill="url(#outer5g-lo)"/><circle cx="-18.1" cy="3.9" r="18.9" fill="url(#outer5g-hi)"/><circle cx="-18.1" cy="53.9" r="18.9" fill="url(#outer5g-hi)"/><circle cx="31.9" cy="3.9" r="18.9" fill="url(#outer5g-hi)"/><circle cx="31.9" cy="53.9" r="18.9" fill="url(#outer5g-hi)"/><circle cx="-9.2" cy="8.5" r="11.1" fill="url(#outer5g-lo)"/><circle cx="-9.2" cy="58.5" r="11.1" fill="url(#outer5g-lo)"/><circle cx="40.8" cy="8.5" r="11.1" fill="url(#outer5g-lo)"/><circle cx="40.8" cy="58.5" r="11.1" fill="url(#outer5g-lo)"/><circle cx="10.4" cy="18.4" r="11.7" fill="url(#outer5g-lo)"/><circle cx="60.4" cy="18.4" r="11.7" fill="url(#outer5g-lo)"/><circle cx="21.4" cy="17" r="15.8" fill="url(#outer5g-hi)"/><circle cx="25.3" cy="23.9" r="12.7" fill="url(#outer5g-lo)"/><circle cx="-2.7" cy="18" r="11.9" fill="url(#outer5g-hi)"/><circle cx="47.3" cy="18" r="11.9" fill="url(#outer5g-hi)"/><circle cx="8.3" cy="29.1" r="18.3" fill="url(#outer5g-hi)"/><circle cx="58.3" cy="29.1" r="18.3" fill="url(#outer5g-hi)"/><circle cx="18.9" cy="25.9" r="19.1" fill="url(#outer5g-lo)"/><circle cx="68.9" cy="25.9" r="19.1" fill="url(#outer5g-lo)"/><circle cx="28.6" cy="32.6" r="16.1" fill="url(#outer5g-hi)"/><circle cx="-10.2" cy="30.1" r="18.2" fill="url(#outer5g-lo)"/><circle cx="39.8" cy="30.1" r="18.2" fill="url(#outer5g-lo)"/><circle cx="1.1" cy="-3.4" r="15.4" fill="url(#outer5g-lo)"/><circle cx="1.1" cy="46.6" r="15.4" fill="url(#outer5g-lo)"/><circle cx="51.1" cy="-3.4" r="15.4" fill="url(#outer5g-lo)"/><circle cx="51.1" cy="46.6" r="15.4" fill="url(#outer5g-lo)"/><circle cx="16.4" cy="-0.7" r="12.9" fill="url(#outer5g-hi)"/><circle cx="16.4" cy="49.3" r="12.9" fill="url(#outer5g-hi)"/><circle cx="-16.5" cy="-11.9" r="17.9" fill="url(#outer5g-lo)"/><circle cx="-16.5" cy="38.1" r="17.9" fill="url(#outer5g-lo)"/><circle cx="33.5" cy="-11.9" r="17.9" fill="url(#outer5g-lo)"/><circle cx="33.5" cy="38.1" r="17.9" fill="url(#outer5g-lo)"/><circle cx="-6.6" cy="-11" r="16.8" fill="url(#outer5g-hi)"/><circle cx="-6.6" cy="39" r="16.8" fill="url(#outer5g-hi)"/><circle cx="43.4" cy="-11" r="16.8" fill="url(#outer5g-hi)"/><circle cx="43.4" cy="39" r="16.8" fill="url(#outer5g-hi)"/></pattern><radialGradient id="outer5v-hi"><stop offset="0" stop-color="#5d8a2c" stop-opacity="0.5"/><stop offset="1" stop-color="#5d8a2c" stop-opacity="0"/></radialGradient><radialGradient id="outer5v-lo"><stop offset="0" stop-color="#bccb85" stop-opacity="0.45"/><stop offset="1" stop-color="#bccb85" stop-opacity="0"/></radialGradient><pattern id="outer5v-mottle" width="100" height="100" patternUnits="userSpaceOnUse"><circle cx="15.5" cy="47" r="51.6" fill="url(#outer5v-hi)"/><circle cx="15.5" cy="147" r="51.6" fill="url(#outer5v-hi)"/><circle cx="115.5" cy="47" r="51.6" fill="url(#outer5v-hi)"/><circle cx="115.5" cy="147" r="51.6" fill="url(#outer5v-hi)"/><circle cx="-16" cy="2.5" r="71.6" fill="url(#outer5v-lo)"/><circle cx="-16" cy="102.5" r="71.6" fill="url(#outer5v-lo)"/><circle cx="84" cy="2.5" r="71.6" fill="url(#outer5v-lo)"/><circle cx="84" cy="102.5" r="71.6" fill="url(#outer5v-lo)"/><circle cx="23.5" cy="-44" r="67.4" fill="url(#outer5v-lo)"/><circle cx="23.5" cy="56" r="67.4" fill="url(#outer5v-lo)"/><circle cx="23.5" cy="156" r="67.4" fill="url(#outer5v-lo)"/><circle cx="123.5" cy="-44" r="67.4" fill="url(#outer5v-lo)"/><circle cx="123.5" cy="56" r="67.4" fill="url(#outer5v-lo)"/><circle cx="123.5" cy="156" r="67.4" fill="url(#outer5v-lo)"/><circle cx="-32" cy="-20.5" r="43.2" fill="url(#outer5v-hi)"/><circle cx="-32" cy="79.5" r="43.2" fill="url(#outer5v-hi)"/><circle cx="68" cy="-20.5" r="43.2" fill="url(#outer5v-hi)"/><circle cx="68" cy="79.5" r="43.2" fill="url(#outer5v-hi)"/></pattern><pattern id="outer5-grass" width="25" height="25" patternUnits="userSpaceOnUse"><ellipse cx="19.6" cy="8.1" rx="0.8" ry="0.6" fill="#6d8b43" opacity=".33"/><path d="M7.3 6.6q0.4 -0.9 0.8 -0.2" fill="none" stroke="#6d8b43" stroke-width="0.28" stroke-linecap="round" opacity=".42"/><path d="M15.1 6q0.4 -1.1 0.9 -0.2" fill="none" stroke="#6d8b43" stroke-width="0.28" stroke-linecap="round" opacity=".42"/><path d="M9.7 16.6q0.4 -0.9 0.8 -0.2" fill="none" stroke="#6d8b43" stroke-width="0.28" stroke-linecap="round" opacity=".42"/><path d="M18.8 7.8q0.5 -1.1 1 -0.3" fill="none" stroke="#6d8b43" stroke-width="0.28" stroke-linecap="round" opacity=".42"/><ellipse cx="2.3" cy="18" rx="0.7" ry="0.5" fill="#6d8b43" opacity=".33"/><path d="M3.6 17.6q0.6 -1.4 1.2 -0.3" fill="none" stroke="#6d8b43" stroke-width="0.28" stroke-linecap="round" opacity=".42"/><path d="M7.6 20.1q0.4 -1.1 0.9 -0.2" fill="none" stroke="#6d8b43" stroke-width="0.28" stroke-linecap="round" opacity=".42"/><path d="M17.4 20.1q0.4 -1.1 0.9 -0.3" fill="none" stroke="#6d8b43" stroke-width="0.28" stroke-linecap="round" opacity=".42"/><path d="M4.1 11.6q0.7 -1.7 1.5 -0.4" fill="none" stroke="#6d8b43" stroke-width="0.28" stroke-linecap="round" opacity=".42"/><ellipse cx="12.6" cy="15.2" rx="1.1" ry="0.8" fill="#6d8b43" opacity=".33"/><path d="M-0.4 22.7q0.6 -1.5 1.3 -0.4" fill="none" stroke="#6d8b43" stroke-width="0.28" stroke-linecap="round" opacity=".42"/><path d="M24.6 22.7q0.6 -1.5 1.3 -0.4" fill="none" stroke="#6d8b43" stroke-width="0.28" stroke-linecap="round" opacity=".42"/><path d="M10.3 21.8q0.6 -1.4 1.2 -0.3" fill="none" stroke="#6d8b43" stroke-width="0.28" stroke-linecap="round" opacity=".42"/><path d="M22.8 16.1q0.6 -1.4 1.2 -0.3" fill="none" stroke="#6d8b43" stroke-width="0.28" stroke-linecap="round" opacity=".42"/></pattern><radialGradient id="outer5w-hi"><stop offset="0" stop-color="#12639f" stop-opacity="0.16"/><stop offset="1" stop-color="#12639f" stop-opacity="0"/></radialGradient><radialGradient id="outer5w-lo"><stop offset="0" stop-color="#08416e" stop-opacity="0.14400000000000002"/><stop offset="1" stop-color="#08416e" stop-opacity="0"/></radialGradient><pattern id="outer5w-mottle" width="50" height="50" patternUnits="userSpaceOnUse"><circle cx="-7.8" cy="2.3" r="14.2" fill="url(#outer5w-hi)"/><circle cx="-7.8" cy="52.3" r="14.2" fill="url(#outer5w-hi)"/><circle cx="42.2" cy="2.3" r="14.2" fill="url(#outer5w-hi)"/><circle cx="42.2" cy="52.3" r="14.2" fill="url(#outer5w-hi)"/><circle cx="26.6" cy="1.1" r="17" fill="url(#outer5w-lo)"/><circle cx="26.6" cy="51.1" r="17" fill="url(#outer5w-lo)"/><circle cx="18.1" cy="3.9" r="18.9" fill="url(#outer5w-hi)"/><circle cx="18.1" cy="53.9" r="18.9" fill="url(#outer5w-hi)"/><circle cx="68.1" cy="3.9" r="18.9" fill="url(#outer5w-hi)"/><circle cx="68.1" cy="53.9" r="18.9" fill="url(#outer5w-hi)"/><circle cx="9.2" cy="8.5" r="11.1" fill="url(#outer5w-lo)"/><circle cx="9.2" cy="58.5" r="11.1" fill="url(#outer5w-lo)"/><circle cx="59.2" cy="8.5" r="11.1" fill="url(#outer5w-lo)"/><circle cx="59.2" cy="58.5" r="11.1" fill="url(#outer5w-lo)"/><circle cx="-10.4" cy="18.4" r="11.7" fill="url(#outer5w-lo)"/><circle cx="39.6" cy="18.4" r="11.7" fill="url(#outer5w-lo)"/><circle cx="28.6" cy="17" r="15.8" fill="url(#outer5w-hi)"/><circle cx="24.7" cy="23.9" r="12.7" fill="url(#outer5w-lo)"/><circle cx="2.7" cy="18" r="11.9" fill="url(#outer5w-hi)"/><circle cx="52.7" cy="18" r="11.9" fill="url(#outer5w-hi)"/><circle cx="-8.3" cy="29.1" r="18.3" fill="url(#outer5w-hi)"/><circle cx="41.7" cy="29.1" r="18.3" fill="url(#outer5w-hi)"/><circle cx="-18.9" cy="25.9" r="19.1" fill="url(#outer5w-lo)"/><circle cx="31.1" cy="25.9" r="19.1" fill="url(#outer5w-lo)"/><circle cx="21.4" cy="32.6" r="16.1" fill="url(#outer5w-hi)"/><circle cx="10.2" cy="30.1" r="18.2" fill="url(#outer5w-lo)"/><circle cx="60.2" cy="30.1" r="18.2" fill="url(#outer5w-lo)"/><circle cx="-1.1" cy="-3.4" r="15.4" fill="url(#outer5w-lo)"/><circle cx="-1.1" cy="46.6" r="15.4" fill="url(#outer5w-lo)"/><circle cx="48.9" cy="-3.4" r="15.4" fill="url(#outer5w-lo)"/><circle cx="48.9" cy="46.6" r="15.4" fill="url(#outer5w-lo)"/><circle cx="33.6" cy="-0.7" r="12.9" fill="url(#outer5w-hi)"/><circle cx="33.6" cy="49.3" r="12.9" fill="url(#outer5w-hi)"/><circle cx="16.5" cy="-11.9" r="17.9" fill="url(#outer5w-lo)"/><circle cx="16.5" cy="38.1" r="17.9" fill="url(#outer5w-lo)"/><circle cx="66.5" cy="-11.9" r="17.9" fill="url(#outer5w-lo)"/><circle cx="66.5" cy="38.1" r="17.9" fill="url(#outer5w-lo)"/><circle cx="6.6" cy="-11" r="16.8" fill="url(#outer5w-hi)"/><circle cx="6.6" cy="39" r="16.8" fill="url(#outer5w-hi)"/><circle cx="56.6" cy="-11" r="16.8" fill="url(#outer5w-hi)"/><circle cx="56.6" cy="39" r="16.8" fill="url(#outer5w-hi)"/></pattern><path id="outer5-land" d="M-11.1 16C-10.2 16.2 -7.4 16.7 -5.6 16.8C-3.7 16.9 -1.9 16.8 0 16.7C1.9 16.6 3.7 16.2 5.6 16C7.4 15.7 9.3 15.4 11.1 15.4C13 15.3 14.8 15.5 16.7 15.7C18.5 15.9 20.4 16.5 22.2 16.8C24.1 17.1 25.9 17.6 27.8 17.6C29.6 17.5 31.5 17.3 33.3 16.7C35.2 16.1 37 15.1 38.9 14.1C40.7 13.1 42.6 11.7 44.4 10.8C46.3 9.8 48.1 8.9 50 8.5C51.9 8.1 53.7 8 55.6 8.2C57.4 8.4 59.3 9 61.1 9.6C63 10.1 64.8 10.8 66.7 11.4C68.5 12 70.5 12.8 72.2 13.2C73.9 13.6 75.7 13.6 77 13.9C78.3 14.2 79.1 14.5 80.1 15C81 15.5 81.9 16.2 82.6 17C83.3 17.8 83.9 18.8 84.2 19.8C84.6 20.8 84.8 21.7 84.7 23C84.6 24.3 83.9 26.1 83.7 27.8C83.4 29.5 83.3 31.5 83.2 33.3C83.2 35.2 83.4 37 83.5 38.9C83.7 40.7 83.9 42.6 84.3 44.4C84.7 46.3 85.2 48.1 86 50C86.7 51.9 87.8 53.7 88.6 55.6C89.5 57.4 90.6 59.3 91.2 61.1C91.8 63 92.3 64.8 92.3 66.7C92.3 68.5 91.8 70.4 91.1 72.2C90.5 74.1 89.3 75.9 88.4 77.8C87.5 79.6 86.4 81.5 85.7 83.3C85 85.2 84.6 87 84.4 88.9C84.2 90.7 84.4 92.6 84.6 94.4C84.7 96.3 85.1 98.1 85.3 100C85.4 101.9 85.5 103.7 85.4 105.6C85.2 107.4 84.7 110.2 84.6 111.1L-12 112L-12 14Z"/><path id="outer5-coast" d="M-11.1 16C-10.2 16.2 -7.4 16.7 -5.6 16.8C-3.7 16.9 -1.9 16.8 0 16.7C1.9 16.6 3.7 16.2 5.6 16C7.4 15.7 9.3 15.4 11.1 15.4C13 15.3 14.8 15.5 16.7 15.7C18.5 15.9 20.4 16.5 22.2 16.8C24.1 17.1 25.9 17.6 27.8 17.6C29.6 17.5 31.5 17.3 33.3 16.7C35.2 16.1 37 15.1 38.9 14.1C40.7 13.1 42.6 11.7 44.4 10.8C46.3 9.8 48.1 8.9 50 8.5C51.9 8.1 53.7 8 55.6 8.2C57.4 8.4 59.3 9 61.1 9.6C63 10.1 64.8 10.8 66.7 11.4C68.5 12 70.5 12.8 72.2 13.2C73.9 13.6 75.7 13.6 77 13.9C78.3 14.2 79.1 14.5 80.1 15C81 15.5 81.9 16.2 82.6 17C83.3 17.8 83.9 18.8 84.2 19.8C84.6 20.8 84.8 21.7 84.7 23C84.6 24.3 83.9 26.1 83.7 27.8C83.4 29.5 83.3 31.5 83.2 33.3C83.2 35.2 83.4 37 83.5 38.9C83.7 40.7 83.9 42.6 84.3 44.4C84.7 46.3 85.2 48.1 86 50C86.7 51.9 87.8 53.7 88.6 55.6C89.5 57.4 90.6 59.3 91.2 61.1C91.8 63 92.3 64.8 92.3 66.7C92.3 68.5 91.8 70.4 91.1 72.2C90.5 74.1 89.3 75.9 88.4 77.8C87.5 79.6 86.4 81.5 85.7 83.3C85 85.2 84.6 87 84.4 88.9C84.2 90.7 84.4 92.6 84.6 94.4C84.7 96.3 85.1 98.1 85.3 100C85.4 101.9 85.5 103.7 85.4 105.6C85.2 107.4 84.7 110.2 84.6 111.1"/><clipPath id="outer5-clip"><use href="#outer5-land"/></clipPath></defs><rect x="-12" y="-12" width="124" height="124" fill="#0a4a7a"/><rect x="-12" y="-12" width="124" height="124" fill="url(#outer5w-mottle)"/><use href="#outer5-coast" fill="none" stroke="#0f568d" stroke-width="28" stroke-linejoin="round" stroke-linecap="butt"/><use href="#outer5-coast" fill="none" stroke="#14639b" stroke-width="22.2" stroke-linejoin="round" stroke-linecap="butt"/><use href="#outer5-coast" fill="none" stroke="#1a72ac" stroke-width="17.3" stroke-linejoin="round" stroke-linecap="butt"/><use href="#outer5-coast" fill="none" stroke="#2183bd" stroke-width="12.4" stroke-linejoin="round" stroke-linecap="butt"/><use href="#outer5-coast" fill="none" stroke="#2b95cc" stroke-width="8.2" stroke-linejoin="round" stroke-linecap="butt"/><use href="#outer5-coast" fill="none" stroke="#3aa6d8" stroke-width="4.1" stroke-linejoin="round" stroke-linecap="butt"/><use href="#outer5-land" fill="#86a556"/><g clip-path="url(#outer5-clip)"><rect x="-12" y="-12" width="124" height="124" fill="url(#outer5g-mottle)"/><rect x="-12" y="-12" width="124" height="124" fill="url(#outer5v-mottle)"/><rect x="-12" y="-12" width="124" height="124" fill="url(#outer5-grass)"/><use href="#outer5-coast" fill="none" stroke="#7d9a52" stroke-width="9" stroke-linejoin="round" stroke-linecap="butt"/><use href="#outer5-coast" fill="none" stroke="#a8b26a" stroke-width="6.6" stroke-linejoin="round" stroke-linecap="butt"/><use href="#outer5-coast" fill="none" stroke="#d2c89a" stroke-width="4.4" stroke-linejoin="round" stroke-linecap="butt"/><use href="#outer5-coast" fill="none" stroke="#e8dfb4" stroke-width="2.4" stroke-linejoin="round" stroke-linecap="butt"/></g><use href="#outer5-coast" fill="none" stroke="#a89b6d" stroke-width="1.8" stroke-linejoin="round" stroke-linecap="butt" opacity=".55"/><use href="#outer5-coast" fill="none" stroke="#bfeaf7" stroke-width="2.4" stroke-linejoin="round" stroke-linecap="butt" opacity=".3"/><use href="#outer5-coast" fill="none" stroke="#c9bd84" stroke-width="1.1" stroke-linejoin="round" stroke-linecap="butt"/></svg>