<svg width="698" height="467" viewBox="0 0 698 467" fill="none" xmlns="http://www.w3.org/2000/svg">
<g opacity="0.8" clip-path="url(#clip0_617_2813)" filter="url(#filter0_if_617_2813)">
<path d="M415.3 266.542L427.727 262.715L458 314.361L415.3 266.542Z" fill="#EBE7E8"/>
<path d="M458 314.361L427.727 262.715L439.826 275.972L458 314.361Z" fill="#D2CEDC"/>
<path d="M430.886 384.083L396.816 396.401L392.725 397.887L385.114 400.62L364.351 408.138L410.623 367.818L430.886 384.083Z" fill="#CECADA"/>
<path d="M364.351 408.137L385.114 400.62L323.946 454.231L364.351 408.137Z" fill="#CECADA"/>
<path d="M392.725 397.887L396.815 396.4L375.017 430.091L392.725 397.887Z" fill="#CECADA"/>
<path d="M156.15 166L240.98 214.947L118.387 202.526L156.15 166Z" fill="#FFFFF2"/>
<path d="M370.288 176.814L397.005 205.568L411.158 223.164L370.288 176.814Z" fill="#D1CDDC"/>
<path d="M118.387 202.526L240.98 214.947L198.453 263.193L118.387 202.526Z" fill="#FFFFF2"/>
<path d="M458 314.361L442.345 370.261L430.885 384.082L458 314.361Z" fill="#CECADA"/>
<path d="M17.7646 298.934L12 278.842L34.5753 242.606L17.7646 298.934Z" fill="#FCFAF2"/>
<path d="M364.351 408.137L323.946 454.231L268.078 418.764L364.351 408.137Z" fill="#D2CEDC"/>
<path d="M169.716 433.371L120.751 436.754L87.9585 436.429L169.716 433.371Z" fill="#CECADA"/>
<path d="M169.716 433.371L87.9585 436.429L164.556 404.157L169.716 433.371Z" fill="#CECADA"/>
<path d="M51.3687 428.536L19.0073 348.444L25.8075 355.227L51.3687 428.536Z" fill="#DCD8E2"/>
<path d="M25.8075 355.227L19.0073 348.445L28.6381 275.392L28.9833 272.795L25.8075 355.227Z" fill="#EFEBEA"/>
<path d="M28.6381 275.392L19.0073 348.445L22.8907 309.56L25.8075 280.363L28.6381 275.392Z" fill="#F0EEEB"/>
<path d="M25.8075 280.363L22.8907 309.561L17.7646 298.934L25.8075 280.363Z" fill="#EAE6E8"/>
<path d="M25.8076 355.227L28.9833 272.795L100.593 288.137L25.8076 355.227Z" fill="#FFFFF2"/>
<path d="M100.593 288.136L28.9834 272.795L118.387 202.526L100.593 288.136Z" fill="#FFFFF2"/>
<path d="M100.592 288.136L118.387 202.526L198.453 263.193L100.592 288.136Z" fill="#FAF7F0"/>
<path d="M411.158 223.165L427.227 245.186L394.555 223.096L411.158 223.165Z" fill="#DDD9E3"/>
<path d="M268.078 418.764L323.946 454.231L280.194 455L268.078 418.764Z" fill="#CECADA"/>
<path d="M156.151 166L118.387 202.526L70.147 216.228L156.151 166Z" fill="#FFFFF2"/>
<path d="M118.387 202.526L28.9834 272.795L32.7114 267.652L70.147 216.228L118.387 202.526Z" fill="#FFFFF2"/>
<path d="M32.7114 267.652L28.9833 272.795L28.6382 275.391L25.8076 280.363L34.5754 242.606L32.7114 267.652Z" fill="#F2F0EC"/>
<path d="M32.7114 267.652L34.5754 242.606L70.147 216.228L32.7114 267.652Z" fill="#FDFCF2"/>
<path d="M394.555 223.096L427.227 245.186L439.826 275.972L394.555 223.096Z" fill="#DFDBE3"/>
<path d="M394.555 223.096L439.826 275.972L427.727 262.715L394.555 223.096Z" fill="#D2CEDC"/>
<path d="M394.554 223.096L427.727 262.715L360.45 225.847L394.554 223.096Z" fill="#F6F4EF"/>
<path d="M240.98 214.947L326.121 167.64L198.453 263.193L240.98 214.947Z" fill="#FEFDF2"/>
<path d="M198.453 263.193L326.121 167.64L267.853 237.396L249.265 244.315L228.623 251.986L198.453 263.193Z" fill="#FFFFF2"/>
<path d="M249.265 244.315L267.853 237.396L249.265 244.315Z" fill="#F3F1ED"/>
<path d="M249.265 244.315L267.853 237.396L253.735 247.869L193.482 265.073L228.623 251.986L249.265 244.315Z" fill="#F5F3ED"/>
<path d="M198.453 263.193L228.623 251.986L193.482 265.073L198.453 263.193Z" fill="#F3F1ED"/>
<path d="M249.265 244.315L228.623 251.986L249.265 244.315Z" fill="#F3F1ED"/>
<path d="M253.735 247.869L267.853 237.396L268.06 237.276L253.735 247.869Z" fill="#F5F3ED"/>
<path d="M253.735 247.868L268.06 237.276L310.984 205.499L320.063 267.191L253.735 247.868Z" fill="#FFFFF2"/>
<path d="M310.984 205.499L268.06 237.276L267.853 237.396L310.984 205.499Z" fill="#F5F3ED"/>
<path d="M310.984 205.499L267.853 237.396L326.121 167.64L370.288 176.814L310.984 205.499Z" fill="#FFFFF2"/>
<path d="M320.063 267.191L310.984 205.499L360.45 225.847L320.063 267.191Z" fill="#FFFFF2"/>
<path d="M360.45 225.847L310.984 205.499L370.288 176.814L360.45 225.847Z" fill="#FFFFF2"/>
<path d="M360.45 225.847L370.288 176.814L394.554 223.096L360.45 225.847Z" fill="#F5F3ED"/>
<path d="M17.7646 298.934L34.5753 242.606L25.8075 280.363L17.7646 298.934Z" fill="#F1EFEB"/>
<path d="M394.554 223.096L370.288 176.814L411.158 223.164L394.554 223.096Z" fill="#D4D0DC"/>
<path d="M427.727 262.715L415.3 266.542L360.45 225.847L427.727 262.715Z" fill="#F1EFEC"/>
<path d="M360.45 225.847L415.3 266.542L320.063 267.191L360.45 225.847Z" fill="#FFFFF2"/>
<path d="M375.017 430.091L323.946 454.231L385.114 400.62L392.725 397.887L375.017 430.091Z" fill="#CECADA"/>
<path d="M198.453 263.193L193.482 265.073L100.592 288.137L198.453 263.193Z" fill="#F3F0EC"/>
<path d="M100.592 288.137L193.482 265.073L107.789 346.104L100.592 288.137Z" fill="#FFFFF2"/>
<path d="M100.593 288.137L107.79 346.104L25.8076 355.227L100.593 288.137Z" fill="#FFFFF2"/>
<path d="M193.483 265.073L253.735 247.869L176.12 345.779L193.483 265.073Z" fill="#FFFFF2"/>
<path d="M193.482 265.073L176.119 345.78L107.79 346.104L193.482 265.073Z" fill="#FFFFF2"/>
<path d="M107.79 346.104L176.119 345.779L164.556 404.157L107.79 346.104Z" fill="#DCD8E2"/>
<path d="M164.556 404.157L176.119 345.779L217.456 420.455L164.556 404.157Z" fill="#E0DCE4"/>
<path d="M217.456 420.456L176.12 345.78L243.5 338.86L217.456 420.456Z" fill="#E8E5E6"/>
<path d="M217.456 420.456L243.5 338.86L268.078 418.764L217.456 420.456Z" fill="#EEEAEA"/>
<path d="M217.456 420.456L268.078 418.764L280.194 455L217.456 420.456Z" fill="#CECADA"/>
<path d="M268.078 418.764L243.5 338.86L330.091 381.554L268.078 418.764Z" fill="#EFEBEA"/>
<path d="M268.078 418.764L330.091 381.554L364.351 408.138L268.078 418.764Z" fill="#CECADA"/>
<path d="M364.351 408.138L330.091 381.554L410.623 367.818L364.351 408.138Z" fill="#CECADA"/>
<path d="M410.623 367.818L330.091 381.554L308.154 329.822L410.623 367.818Z" fill="#ECE8E9"/>
<path d="M308.154 329.822L330.091 381.554L243.5 338.86L308.154 329.822Z" fill="#ECE8E9"/>
<path d="M243.5 338.86L176.12 345.779L253.735 247.869L243.5 338.86Z" fill="#FFFFF2"/>
<path d="M243.5 338.86L253.735 247.869L320.063 267.191L243.5 338.86Z" fill="#FFFFF2"/>
<path d="M410.623 367.818L308.154 329.822L397.627 331.736L410.623 367.818Z" fill="#FBFAF0"/>
<path d="M410.623 367.818L397.626 331.736L458 314.361L410.623 367.818Z" fill="#F0ECEA"/>
<path d="M410.623 367.818L458 314.361L430.886 384.082L410.623 367.818Z" fill="#D8D3DF"/>
<path d="M397.627 331.736L308.154 329.822L320.063 267.191L397.627 331.736Z" fill="#FFFFF2"/>
<path d="M458 314.361L397.626 331.736L407.361 291.502L458 314.361Z" fill="#F7F5EF"/>
<path d="M308.154 329.822L243.5 338.86L320.063 267.191L308.154 329.822Z" fill="#FFFFF2"/>
<path d="M458 314.361L407.361 291.502L415.3 266.542L458 314.361Z" fill="#F4F2ED"/>
<path d="M415.3 266.542L407.361 291.502L320.063 267.191L415.3 266.542Z" fill="#FFFFF2"/>
<path d="M320.063 267.191L407.361 291.502L397.627 331.736L320.063 267.191Z" fill="#FFFFF2"/>
<path d="M164.556 404.157L217.456 420.455L224.843 425.734L164.556 404.157Z" fill="#CECADA"/>
<path d="M224.843 425.734L217.456 420.455L280.194 455L231.868 429.441L224.843 425.734Z" fill="#CECADA"/>
<path d="M224.843 425.734L231.867 429.442L169.716 433.371L224.843 425.734Z" fill="#CECADA"/>
<path d="M164.556 404.157L224.843 425.734L169.716 433.371L164.556 404.157Z" fill="#CECADA"/>
<path d="M25.8076 355.227L107.79 346.104L87.9587 436.429L25.8076 355.227Z" fill="#EFEBEA"/>
<path d="M25.8076 355.227L87.9587 436.429L51.3688 428.536L25.8076 355.227Z" fill="#DFDBE3"/>
<path d="M87.9585 436.429L107.79 346.104L164.556 404.157L87.9585 436.429Z" fill="#EBE7E9"/>
</g>
<g opacity="0.9" clip-path="url(#clip1_617_2813)" filter="url(#filter1_if_617_2813)">
<path d="M567.51 219.96L567.18 216.92L579.67 194.33L604.16 206.16L567.51 219.96Z" fill="#FFFFF2"/>
<path d="M567.18 216.92L567.51 219.96L566.89 220.8L569.41 230.58L562.29 214.26L567.47 215.26L567.18 216.92Z" fill="#FBFAF2"/>
<path d="M567.18 216.92L567.47 215.26L564.15 212.37L563.93 211.89L579.67 194.33L567.18 216.92Z" fill="#FFFFF2"/>
<path d="M566.89 220.8L567.51 219.96L604.16 206.16L585.45 219.7L566.89 220.8Z" fill="#FEFEF2"/>
<path d="M569.41 230.58L566.89 220.8L585.45 219.7L579.17 263.96L569.35 234.2L569.41 230.58Z" fill="#FFFFF2"/>
<path d="M569.41 230.58L569.35 234.2L568.99 240.58L544.95 235.97L562.29 214.26L569.41 230.58Z" fill="#FBFAF2"/>
<path d="M568.99 240.58L569.35 234.2L579.17 263.96L563.01 262.24L566.15 256.4L568.57 248.36L568.99 240.58Z" fill="#FFFFF2"/>
<path d="M568.99 240.58L568.57 248.36L564.44 253.32L544.95 235.97L568.99 240.58Z" fill="#FBFAF2"/>
<path d="M566.15 256.4L563.01 262.24L564.13 267.26L563.94 273.17L555.99 272.01L564.44 253.32L566.15 256.4Z" fill="#FCFBF2"/>
<path d="M563.94 273.17L564.13 267.26L587.46 293.87L566.03 295.4L563.48 282.52L563.94 273.17Z" fill="#F3F0ED"/>
<path d="M563.94 273.17L563.48 282.52L563.59 284.42L554.76 290.86L555.99 272.01L563.94 273.17Z" fill="#F4F2ED"/>
<path d="M563.59 284.42L563.48 282.52L566.03 295.4L564.09 292.05L563.59 284.42Z" fill="#ECE8E9"/>
<path d="M563.59 284.42L564.09 292.05L563.78 295.14L564.53 297.21L561.76 302.36L554.76 290.86L563.59 284.42Z" fill="#DEDAE3"/>
<path d="M564.53 297.21L563.78 295.14L566.03 295.4L579.64 323.88L572.14 316.17L572.15 315.7L567.02 307.98L567.4 303.65L564.53 297.21Z" fill="#DDD9E3"/>
<path d="M567.4 303.65L567.02 307.98L542.2 317.59L561.76 302.36L567.4 303.65Z" fill="#CECADA"/>
<path d="M564.53 297.21L567.4 303.65L561.76 302.36L564.53 297.21Z" fill="#E3DFE5"/>
<path d="M567.02 307.98L572.15 315.7L568.66 333.63L542.2 317.59L567.02 307.98Z" fill="#D2CEDC"/>
<path d="M564.13 267.26L563.01 262.24L579.17 263.96L587.46 293.87L564.13 267.26Z" fill="#E6E2E6"/>
<path d="M563.78 295.14L564.09 292.05L566.03 295.4L563.78 295.14Z" fill="#F7F5EF"/>
<path d="M572.15 315.7L572.14 316.17L572.94 320.02L575.19 321.31L568.66 333.63L572.15 315.7Z" fill="#CECADA"/>
<path d="M572.94 320.02L572.14 316.17L579.64 323.88L575.19 321.31L572.94 320.02Z" fill="#CECADA"/>
<path d="M568.57 248.36L566.15 256.4L564.44 253.32L568.57 248.36Z" fill="#FFFFF2"/>
<path d="M563.93 211.89L564.15 212.37L540.15 202.54L558.46 203.93L558.51 204.68L558.76 205.95L563.93 211.89Z" fill="#F2F0EC"/>
<path d="M558.76 205.95L558.51 204.68L561.38 199.1L558.76 205.95Z" fill="#F9F6F0"/>
<path d="M563.93 211.89L558.76 205.95L561.38 199.1L579.67 194.33L563.93 211.89Z" fill="#FFFFF2"/>
<path d="M558.51 204.68L558.46 203.93L558.37 203.77L558.36 203.58L558.41 203.51L561.38 199.1L558.51 204.68Z" fill="#F6F4ED"/>
<path d="M558.36 203.58L558.37 203.77L506.51 190.62L534.79 189.93L558.41 203.51L558.36 203.58Z" fill="#F9F6F0"/>
<path d="M558.37 203.77L558.46 203.93L540.15 202.54L506.51 190.62L558.37 203.77Z" fill="#F3F0EC"/>
<path d="M564.15 212.37L567.47 215.26L562.29 214.26L540.15 202.54L564.15 212.37Z" fill="#EFEBEA"/>
<path d="M668.42 250.78L668.38 253.12L668.2 265.52L651.83 262.64L668.42 250.78Z" fill="#E1DDE5"/>
<path d="M356.72 301.58L343.57 284.07L342.97 283.26L379.73 315.47L356.72 301.58Z" fill="#CECADA"/>
<path d="M652.46 305.51L648.75 311.59L654.9 290.06L659.99 293.17L652.63 305.22L652.46 305.51Z" fill="#CECADA"/>
<path d="M652.63 305.22L659.99 293.17L655.89 303.08L652.63 305.22Z" fill="#CECADA"/>
<path d="M652.46 305.51L652.63 305.22L655.89 303.08L652.46 305.51Z" fill="#CECADA"/>
<path d="M379.73 315.47L342.97 283.26L363.06 293.83L379.73 315.47Z" fill="#CECADA"/>
<path d="M466.67 172L483.49 178.33H482.27L439.18 165.61L466.67 172Z" fill="#F0ECEB"/>
<path d="M391.2 314.55L379.73 315.47L363.06 293.83L406.29 313.35L403.23 313.59L399.23 313.91L391.2 314.55Z" fill="#D2CEDC"/>
<path d="M403.23 313.59L406.29 313.35L414.37 311.87L422.71 317.77L424.86 322.38L429.84 326.87L431.15 329.46L413.23 328.59L403.23 313.59Z" fill="#D1CDDC"/>
<path d="M431.15 329.46L429.84 326.87L451.92 346.78L432.54 332.22L431.15 329.46Z" fill="#D1CCDB"/>
<path d="M424.86 322.38L422.71 317.77L419.52 310.93L417.33 306.25L416.03 303.45L414.93 301.1L398.95 266.88L408.4 270.16L424.86 322.38Z" fill="#DCD8E2"/>
<path d="M417.33 306.25L419.52 310.93L414.37 311.87L406.29 313.35L393.8 301.41L417.33 306.25Z" fill="#CECADA"/>
<path d="M419.52 310.93L422.71 317.77L414.37 311.87L419.52 310.93Z" fill="#D1CCDB"/>
<path d="M416.03 303.45L417.33 306.25L393.8 301.41L416.03 303.45Z" fill="#CECADA"/>
<path d="M399.23 313.91L403.23 313.59L413.23 328.59L399.23 313.91Z" fill="#CECADA"/>
<path d="M429.84 326.87L424.86 322.38L481.38 335.37L451.92 346.78L429.84 326.87Z" fill="#D2CEDC"/>
<path d="M391.2 314.55L399.23 313.91L413.23 328.59L391.2 314.55Z" fill="#CECADA"/>
<path d="M406.29 313.35L363.06 293.83L393.8 301.41L406.29 313.35Z" fill="#CECADA"/>
<path d="M393.8 301.41L363.06 293.83L344.62 261.41L393.8 301.41Z" fill="#E4E0E5"/>
<path d="M393.8 301.41L344.62 261.41L383.15 275.46L393.8 301.41Z" fill="#E2DEE5"/>
<path d="M383.15 275.46L344.62 261.41L354.23 218.74L383.15 275.46Z" fill="#FFFFF2"/>
<path d="M383.15 275.46L354.23 218.74L393.94 236.34L398.03 242.76L397.94 243.09L396.71 248.15L383.15 275.46Z" fill="#FFFFF2"/>
<path d="M398.03 242.76L393.94 236.34L385.84 231.6L391.64 188.67L404.5 223.81L403.25 224.87L398.03 242.76Z" fill="#FFFFF2"/>
<path d="M385.84 231.6L393.94 236.34L354.23 218.74L379.02 224.48L380.8 226.31L385.84 231.6Z" fill="#FCFBF2"/>
<path d="M380.8 226.31L379.02 224.48L372.02 219.59L375.83 197L380.8 226.31Z" fill="#FFFFF2"/>
<path d="M372.02 219.59L379.02 224.48L354.23 218.74L371.66 218.37L372.02 219.59Z" fill="#F9F7F0"/>
<path d="M372.02 219.59L371.66 218.37L370.83 217.54L371.02 212.86L371 209.41L374.5 200.41L375.83 197L372.02 219.59Z" fill="#EDE9EA"/>
<path d="M371 209.41L371.02 212.86L352.66 201.28L370.84 187.37L374.5 200.41L371 209.41Z" fill="#FFFFF2"/>
<path d="M370.83 217.54L371.66 218.37L354.23 218.74L333.44 214.66L370.83 217.54Z" fill="#F5F3ED"/>
<path d="M371.02 212.86L370.83 217.54L333.44 214.66L352.66 201.28L371.02 212.86Z" fill="#FFFFF2"/>
<path d="M385.84 231.6L380.8 226.31L375.83 197L391.64 188.67L385.84 231.6Z" fill="#FFFFF2"/>
<path d="M375.83 197L374.5 200.41L370.84 187.37L381.63 189.34L375.83 197Z" fill="#FFFFF2"/>
<path d="M375.83 197L381.63 189.34L393.96 173.04L411.89 163L375.83 197Z" fill="#FEFEF2"/>
<path d="M403.25 224.87L404.5 223.81L416.03 214.01L424.38 206.91L434.2 198.57L444.05 190.2L451.25 184.08L427.01 216.72L403.25 224.87Z" fill="#FFFFF2"/>
<path d="M451.25 184.08L444.05 190.2L439.18 165.61L466.15 178.47L464.39 180.8L451.25 184.08Z" fill="#FFFFF2"/>
<path d="M424.38 206.91L416.03 214.01L418.25 191.68L424.38 206.91Z" fill="#FFFFF2"/>
<path d="M434.2 198.57L424.38 206.91L418.25 191.68L434.2 198.57Z" fill="#FFFFF2"/>
<path d="M398.03 242.76L403.25 224.87L398.95 266.88L397.94 243.09L398.03 242.76Z" fill="#EAE6E8"/>
<path d="M396.71 248.15L397.94 243.09L398.95 266.88L392.62 267.85L393.55 261.18L396.71 248.15Z" fill="#F1EFEC"/>
<path d="M393.55 261.18L392.62 267.85L397.91 273.95L383.15 275.46L396.71 248.15L393.55 261.18Z" fill="#FFFFF2"/>
<path d="M397.91 273.95L392.62 267.85L398.95 266.88L402.34 283.44L397.91 273.95Z" fill="#D4D0DC"/>
<path d="M397.91 273.95L402.34 283.44L406.26 291.82L407.75 293.41L383.15 275.46L397.91 273.95Z" fill="#E9E6E8"/>
<path d="M406.26 291.82L402.34 283.44L398.95 266.88L414.93 301.1L407.75 293.41L406.26 291.82Z" fill="#D4D0DC"/>
<path d="M407.75 293.41L414.93 301.1L416.03 303.45L393.8 301.41L383.15 275.46L407.75 293.41Z" fill="#E6E2E6"/>
<path d="M444.05 190.2L434.2 198.57L418.25 191.68L439.18 165.61L444.05 190.2Z" fill="#FFFFF2"/>
<path d="M451.25 184.08L464.39 180.8L466.21 180.34L467.65 179.98L468.73 179.71L472.05 178.88L474.32 178.32L427.01 216.72L451.25 184.08Z" fill="#FFFFF2"/>
<path d="M474.32 178.32L472.05 178.88L466.15 178.47L439.18 165.61L482.27 178.33L474.32 178.32Z" fill="#F4F2ED"/>
<path d="M467.65 179.98L466.21 180.34L466.15 178.47L467.65 179.98Z" fill="#FFFFF2"/>
<path d="M474.32 178.32L482.27 178.33H483.49L506.23 178.34L534.79 189.93L474.32 178.32Z" fill="#F7F5EF"/>
<path d="M472.05 178.88L468.73 179.71L466.15 178.47L472.05 178.88Z" fill="#F3F1ED"/>
<path d="M468.73 179.71L467.65 179.98L466.15 178.47L468.73 179.71Z" fill="#F6F4EF"/>
<path d="M466.21 180.34L464.39 180.8L466.15 178.47L466.21 180.34Z" fill="#FEFEF2"/>
<path d="M344.62 261.41L363.06 293.83L333.1 249.69L344.62 261.41Z" fill="#CECADA"/>
<path d="M344.62 261.41L333.1 249.69L333.44 214.66L344.62 261.41Z" fill="#F6F4EF"/>
<path d="M344.62 261.41L333.44 214.66L354.23 218.74L344.62 261.41Z" fill="#FFFFF2"/>
<path d="M333.44 214.66L333.1 249.69L327.77 223.75L333.44 214.66Z" fill="#EDE9EA"/>
<path d="M327.77 223.75L333.1 249.69L324.44 245.64L327.77 223.75Z" fill="#FBFAF0"/>
<path d="M333.1 249.69L363.06 293.83L342.97 283.26L333.1 249.69Z" fill="#F0ECEB"/>
<path d="M408.4 270.16L398.95 266.88L403.25 224.87L408.4 270.16Z" fill="#F4F2ED"/>
<path d="M424.86 322.38L408.4 270.16L446.95 326.36L424.86 322.38Z" fill="#EFEBEA"/>
<path d="M534.79 189.93L506.51 190.62L474.32 178.32L534.79 189.93Z" fill="#F9F6EF"/>
<path d="M481.38 335.37L424.86 322.38L446.95 326.36L481.38 335.37Z" fill="#CECADA"/>
<path d="M446.95 326.36L408.4 270.16L435.76 267.69L446.95 326.36Z" fill="#EFEBEA"/>
<path d="M435.76 267.69L408.4 270.16L427.01 216.72L435.76 267.69Z" fill="#FFFFF2"/>
<path d="M427.01 216.72L408.4 270.16L403.25 224.87L427.01 216.72Z" fill="#FFFFF2"/>
<path d="M439.18 165.61L418.25 191.68L391.64 188.67L439.18 165.61Z" fill="#FFFFF2"/>
<path d="M446.95 326.36L435.76 267.69L480.31 317.29L446.95 326.36Z" fill="#F3F0EC"/>
<path d="M564.44 253.32L555.99 272.01L526.33 268.28L564.44 253.32Z" fill="#FCFBF2"/>
<path d="M526.33 268.28L555.99 272.01L554.76 290.86L526.33 268.28Z" fill="#EFEBEA"/>
<path d="M526.33 268.28L554.76 290.86L527.44 303.12L526.33 268.28Z" fill="#F4F2ED"/>
<path d="M504.98 341.2L476.89 346.78H451.92L504.98 341.2Z" fill="#CECADA"/>
<path d="M504.98 341.2L451.92 346.78L481.38 335.37L504.98 341.2Z" fill="#CECADA"/>
<path d="M550.49 339.48L529.82 344.05L526.41 328.17L550.49 339.48Z" fill="#CECADA"/>
<path d="M550.49 339.48L526.41 328.17L542.2 317.59L550.49 339.48Z" fill="#D2CEDC"/>
<path d="M568.66 333.63L550.49 339.48L542.2 317.59L568.66 333.63Z" fill="#D2CEDC"/>
<path d="M554.76 290.86L561.76 302.36L527.44 303.12L554.76 290.86Z" fill="#DCD8E2"/>
<path d="M404.5 223.81L391.64 188.67L418.25 191.68L416.03 214.01L404.5 223.81Z" fill="#FFFFF2"/>
<path d="M540.15 202.54L562.29 214.26L544.95 235.97L540.15 202.54Z" fill="#FFFFF2"/>
<path d="M446.95 326.36L480.31 317.29L503.47 335.58L446.95 326.36Z" fill="#CECADA"/>
<path d="M503.47 335.58L480.31 317.29L526.41 328.17L503.47 335.58Z" fill="#CECADA"/>
<path d="M313 248.1L320.47 226.34L318.41 233.2L313 248.1Z" fill="#ECE8E9"/>
<path d="M313 248.1L318.41 233.2L318.88 244.76L313 248.1Z" fill="#EEEAEA"/>
<path d="M313 248.1L318.88 244.76L321.71 257.9L313 248.1Z" fill="#E4E0E5"/>
<path d="M313 248.1L321.71 257.9L325.97 268.24L313 248.1Z" fill="#D2CEDC"/>
<path d="M321.71 257.9L318.88 244.76L330.6 270.19L321.71 257.9Z" fill="#E2DEE5"/>
<path d="M330.6 270.19L318.88 244.76L324.44 245.64L330.6 270.19Z" fill="#E1DDE5"/>
<path d="M330.6 270.19L324.44 245.64L333.1 249.69L330.6 270.19Z" fill="#E7E4E6"/>
<path d="M330.6 270.19L333.1 249.69L342.97 283.26L330.6 270.19Z" fill="#E6E3E6"/>
<path d="M527.44 303.12L561.76 302.36L542.2 317.59L527.44 303.12Z" fill="#D1CDDC"/>
<path d="M318.41 233.2L320.47 226.34L335.76 209.89L318.41 233.2Z" fill="#FBFAF0"/>
<path d="M318.41 233.2L335.76 209.89L327.77 223.75L318.41 233.2Z" fill="#F6F4EF"/>
<path d="M318.41 233.2L327.77 223.75L318.88 244.76L318.41 233.2Z" fill="#F6F4ED"/>
<path d="M318.88 244.76L327.77 223.75L324.44 245.64L318.88 244.76Z" fill="#F3F1ED"/>
<path d="M327.77 223.75L335.76 209.89L333.44 214.66L327.77 223.75Z" fill="#F0EEEB"/>
<path d="M333.44 214.66L335.76 209.89L352.66 201.28L333.44 214.66Z" fill="#FAF7F0"/>
<path d="M481.38 335.37L446.95 326.36L503.47 335.58L481.38 335.37Z" fill="#CECADA"/>
<path d="M542.2 317.59L526.41 328.17L506.54 311.12L542.2 317.59Z" fill="#D1CCDB"/>
<path d="M506.54 311.12L526.41 328.17L480.31 317.29L506.54 311.12Z" fill="#CECADA"/>
<path d="M506.54 311.12L480.31 317.29L468.18 267.37L506.54 311.12Z" fill="#F0EEEB"/>
<path d="M506.54 311.12L468.18 267.37L500.9 267.45L506.54 311.12Z" fill="#F6F4EF"/>
<path d="M506.54 311.12L500.9 267.45L527.44 303.12L506.54 311.12Z" fill="#FDFCF2"/>
<path d="M506.54 311.12L527.44 303.12L542.2 317.59L506.54 311.12Z" fill="#D2CEDC"/>
<path d="M527.44 303.12L500.9 267.45L526.33 268.28L527.44 303.12Z" fill="#F9F7F0"/>
<path d="M343.57 284.07L325.97 268.24L321.71 257.9L330.6 270.19L342.97 283.26L343.57 284.07Z" fill="#D6D1DE"/>
<path d="M468.18 267.37L480.31 317.29L435.76 267.69L468.18 267.37Z" fill="#F0EEEB"/>
<path d="M468.18 267.37L435.76 267.69L447.29 210.35L468.18 267.37Z" fill="#FFFFF2"/>
<path d="M447.29 210.35L435.76 267.69L427.01 216.72L447.29 210.35Z" fill="#FFFFF2"/>
<path d="M447.29 210.35L427.01 216.72L474.32 178.32L447.29 210.35Z" fill="#FFFFF2"/>
<path d="M447.29 210.35L474.32 178.32L506.51 190.62L447.29 210.35Z" fill="#FFFFF2"/>
<path d="M447.29 210.35L506.51 190.62L479.57 222.21L447.29 210.35Z" fill="#FFFFF2"/>
<path d="M479.57 222.21L506.51 190.62L518.75 230.43L479.57 222.21Z" fill="#FFFFF2"/>
<path d="M518.75 230.43L506.51 190.62L540.15 202.54L518.75 230.43Z" fill="#FFFFF2"/>
<path d="M518.75 230.43L540.15 202.54L544.95 235.97L518.75 230.43Z" fill="#FFFFF2"/>
<path d="M518.75 230.43L544.95 235.97L526.33 268.28L518.75 230.43Z" fill="#FFFFF2"/>
<path d="M468.18 267.37L447.29 210.35L479.57 222.21L468.18 267.37Z" fill="#FFFFF2"/>
<path d="M468.18 267.37L479.57 222.21L500.9 267.45L468.18 267.37Z" fill="#FFFFF2"/>
<path d="M479.57 222.21L518.75 230.43L500.9 267.45L479.57 222.21Z" fill="#FFFFF2"/>
<path d="M500.9 267.45L518.75 230.43L526.33 268.28L500.9 267.45Z" fill="#FFFFF2"/>
<path d="M439.18 165.61L391.64 188.67L411.89 163L439.18 165.61Z" fill="#FFFFF2"/>
<path d="M411.89 163L391.64 188.67L375.83 197L411.89 163Z" fill="#FCFBF2"/>
<path d="M564.44 253.32L526.33 268.28L544.95 235.97L564.44 253.32Z" fill="#F4F2ED"/>
<path d="M529.82 344.05L504.98 341.2L503.47 335.58L529.82 344.05Z" fill="#CECADA"/>
<path d="M529.82 344.05L503.47 335.58L526.41 328.17L529.82 344.05Z" fill="#CECADA"/>
<path d="M481.38 335.37L503.47 335.58L504.98 341.2L481.38 335.37Z" fill="#CECADA"/>
<path d="M566.03 295.4L587.46 293.87L597.87 320.72L566.03 295.4Z" fill="#E8E5E6"/>
<path d="M638.36 315.51L618.65 329.51L635.19 316.72L638.36 315.51Z" fill="#CECADA"/>
<path d="M638.36 315.51L635.19 316.72L638.11 313.89L648.75 311.59L638.36 315.51Z" fill="#CECADA"/>
<path d="M668.42 250.78L651.83 262.64L662.79 241.59L668.42 250.78Z" fill="#DEDAE3"/>
<path d="M600.24 189.47L624.1 191.79L579.67 194.33L600.24 189.47Z" fill="#FAF7F0"/>
<path d="M638.11 313.89L635.19 316.72L618.26 317.93L638.11 313.89Z" fill="#CECADA"/>
<path d="M618.26 317.93L635.19 316.72L618.65 329.51L618.26 317.93Z" fill="#CECADA"/>
<path d="M579.67 194.33L624.1 191.79L604.16 206.16L579.67 194.33Z" fill="#FFFFF2"/>
<path d="M566.03 295.4L597.87 320.72L579.64 323.88L566.03 295.4Z" fill="#DFDCE4"/>
<path d="M618.65 329.51L597.32 331.92L597.87 320.72L618.65 329.51Z" fill="#CECADA"/>
<path d="M597.87 320.72L597.32 331.92L579.64 323.88L597.87 320.72Z" fill="#CECADA"/>
<path d="M618.26 317.93L618.65 329.51L597.87 320.72L618.26 317.93Z" fill="#CECADA"/>
<path d="M604.16 206.16L624.1 191.79L643.44 205.28L604.16 206.16Z" fill="#FFFFF2"/>
<path d="M643.44 205.28L656.34 221.6L623.79 209.19L643.44 205.28Z" fill="#FCFBF2"/>
<path d="M659.99 293.17L654.9 290.06L662.74 280.5L659.99 293.17Z" fill="#CECADA"/>
<path d="M604.16 206.16L643.44 205.28L623.79 209.19L604.16 206.16Z" fill="#FAF8F0"/>
<path d="M604.16 206.16L623.79 209.19L608.59 224.94L604.16 206.16Z" fill="#FFFFF2"/>
<path d="M604.16 206.16L608.59 224.94L585.45 219.7L604.16 206.16Z" fill="#FFFFF2"/>
<path d="M623.79 209.19L656.34 221.6L639.11 222.61L623.79 209.19Z" fill="#FCFAF2"/>
<path d="M656.34 221.6L666.75 238.6L662.79 241.59L656.34 221.6Z" fill="#D8D3DF"/>
<path d="M662.79 241.59L666.75 238.6L668.42 250.78L662.79 241.59Z" fill="#D8D3DF"/>
<path d="M608.59 224.94L623.79 209.19L639.11 222.61L608.59 224.94Z" fill="#FFFFF2"/>
<path d="M638.11 313.89L618.26 317.93L624.08 286.6L638.11 313.89Z" fill="#F4F2ED"/>
<path d="M624.08 286.6L618.26 317.93L605.59 288.94L624.08 286.6Z" fill="#F4F2ED"/>
<path d="M605.59 288.94L618.26 317.93L587.46 293.87L605.59 288.94Z" fill="#F9F6F0"/>
<path d="M587.46 293.87L618.26 317.93L597.87 320.72L587.46 293.87Z" fill="#E7E4E6"/>
<path d="M587.46 293.87L579.17 263.96L605.59 288.94L587.46 293.87Z" fill="#E8E5E6"/>
<path d="M605.59 288.94L579.17 263.96L602.29 266.52L605.59 288.94Z" fill="#E9E6E8"/>
<path d="M602.29 266.52L579.17 263.96L585.45 219.7L602.29 266.52Z" fill="#FFFFF2"/>
<path d="M602.29 266.52L585.45 219.7L608.59 224.94L602.29 266.52Z" fill="#FFFFF2"/>
<path d="M602.29 266.52L608.59 224.94L626.51 264.99L602.29 266.52Z" fill="#FFFFF2"/>
<path d="M626.51 264.99L608.59 224.94L631.91 233.67L626.51 264.99Z" fill="#FFFFF2"/>
<path d="M602.29 266.52L626.51 264.99L624.08 286.6L602.29 266.52Z" fill="#E3DFE5"/>
<path d="M602.29 266.52L624.08 286.6L605.59 288.94L602.29 266.52Z" fill="#EBE7E8"/>
<path d="M626.51 264.99L631.91 233.67L649.78 247.62L626.51 264.99Z" fill="#F9F6F0"/>
<path d="M649.78 247.62L631.91 233.67L655.25 239.7L649.78 247.62Z" fill="#F4F2ED"/>
<path d="M655.25 239.7L631.91 233.67L639.11 222.61L655.25 239.7Z" fill="#F5F3ED"/>
<path d="M639.11 222.61L631.91 233.67L608.59 224.94L639.11 222.61Z" fill="#FEFEF2"/>
<path d="M626.51 264.99L649.78 247.62L638.84 262.25L626.51 264.99Z" fill="#CECADA"/>
<path d="M638.84 262.25L649.78 247.62L651.83 262.64L638.84 262.25Z" fill="#CECADA"/>
<path d="M651.83 262.64L649.78 247.62L655.25 239.7L651.83 262.64Z" fill="#CECADA"/>
<path d="M638.84 262.25L651.83 262.64L634.24 273.82L638.84 262.25Z" fill="#CECADA"/>
<path d="M634.24 273.82L651.83 262.64L643.62 286.66L634.24 273.82Z" fill="#F3F0EC"/>
<path d="M638.11 313.89L624.08 286.6L643.62 286.66L638.11 313.89Z" fill="#F3F1ED"/>
<path d="M638.11 313.89L643.62 286.66L654.9 290.06L638.11 313.89Z" fill="#F6F4EF"/>
<path d="M638.11 313.89L654.9 290.06L648.75 311.59L638.11 313.89Z" fill="#CECADA"/>
<path d="M643.62 286.66L624.08 286.6L634.24 273.82L643.62 286.66Z" fill="#F1EFEC"/>
<path d="M638.84 262.25L634.24 273.82L626.51 264.99L638.84 262.25Z" fill="#CECADA"/>
<path d="M626.51 264.99L634.24 273.82L624.08 286.6L626.51 264.99Z" fill="#CECADA"/>
<path d="M639.11 222.61L656.34 221.6L655.25 239.7L639.11 222.61Z" fill="#FBFAF0"/>
<path d="M655.25 239.7L656.34 221.6L662.79 241.59L655.25 239.7Z" fill="#E9E6E8"/>
<path d="M669.81 265.87L659.99 293.17L662.74 280.5L669.81 265.87Z" fill="#CECADA"/>
<path d="M669.81 265.87L662.74 280.5L668.2 265.52L669.81 265.87Z" fill="#CECADA"/>
<path d="M669.81 265.87L668.2 265.52L668.38 253.12L669.81 265.87Z" fill="#CECADA"/>
<path d="M651.83 262.64L655.25 239.7L662.79 241.59L651.83 262.64Z" fill="#CECADA"/>
<path d="M651.83 262.64L668.2 265.52L662.74 280.5L651.83 262.64Z" fill="#E7E4E6"/>
<path d="M651.83 262.64L662.74 280.5L654.9 290.06L651.83 262.64Z" fill="#E6E2E6"/>
<path d="M651.83 262.64L654.9 290.06L643.62 286.66L651.83 262.64Z" fill="#F1EFEC"/>
<path d="M661.19 307.14L639.48 323.44L634.47 319.13L661.19 307.14Z" fill="#CECADA"/>
<path d="M679.47 278.12L661.19 307.14L680.48 270.57L679.47 278.12Z" fill="#CECADA"/>
<path d="M679.47 278.12L680.48 270.57L685.86 250.81L679.47 278.12Z" fill="#CECADA"/>
<path d="M685.86 250.81L680.48 270.57L679.24 254.96L685.86 250.81Z" fill="#CECADA"/>
<path d="M661.19 307.14L634.47 319.13L661.96 294.94L661.19 307.14Z" fill="#CECADA"/>
<path d="M481.73 244.1L488.89 232.8L487.89 236.83L479.47 252.86L481.73 244.1Z" fill="#F9F7F0"/>
<path d="M678.84 225.19L685.86 250.81L679.05 236.67L678.84 225.19Z" fill="#CECADA"/>
<path d="M615.12 323.46L589.06 331.68L571.08 316.29L615.12 323.46Z" fill="#CECADA"/>
<path d="M571.08 316.29L589.06 331.68L536.91 312.1L571.08 316.29Z" fill="#CECADA"/>
<path d="M661.96 294.94L634.47 319.13L624.08 274.46L661.96 294.94Z" fill="#FEFEF2"/>
<path d="M509.08 201.94L528.6 188.94L489.77 229.25L509.08 201.94Z" fill="#FEFDF2"/>
<path d="M571.08 316.29L536.91 312.1L506.71 283.02L571.08 316.29Z" fill="#DAD6E1"/>
<path d="M506.71 283.02L536.91 312.1L514.36 302.47L494.89 269.57L506.71 283.02Z" fill="#E6E3E6"/>
<path d="M514.36 302.47L536.91 312.1L561.1 336.65L514.36 302.47Z" fill="#CECADA"/>
<path d="M561.62 180.22L602.93 187.66L572.23 189.96L561.62 180.22Z" fill="#F3F0EC"/>
<path d="M477.37 270.85L479.47 252.86L481.31 266.61L477.37 270.85Z" fill="#EAE6E8"/>
<path d="M506.71 283.02L494.89 269.57L489.77 229.25L506.71 283.02Z" fill="#F1EFEB"/>
<path d="M489.77 229.25L494.89 269.57L486.95 240.65L487.89 236.83L488.89 232.8L489.77 229.25Z" fill="#EAE6E8"/>
<path d="M679.24 254.96L680.48 270.57L657.36 261.99L679.24 254.96Z" fill="#EFEBEA"/>
<path d="M679.24 254.96L657.36 261.99L654.61 227.18L679.24 254.96Z" fill="#FFFFF2"/>
<path d="M654.61 227.18L657.36 261.99L624.08 274.46L654.61 227.18Z" fill="#FFFFF2"/>
<path d="M624.08 274.46L657.36 261.99L661.96 294.94L624.08 274.46Z" fill="#FEFEF2"/>
<path d="M654.61 227.18L624.08 274.46L619.98 225.16L654.61 227.18Z" fill="#FFFFF2"/>
<path d="M674.19 221.84L678.84 225.19L679.05 236.67L656.13 208.86L674.19 221.84Z" fill="#FFFFF2"/>
<path d="M533.29 187.39L561.62 180.22L528.6 188.94L533.29 187.39Z" fill="#F3F1ED"/>
<path d="M528.6 188.94L561.62 180.22L572.23 189.96L528.6 188.94Z" fill="#F9F6EF"/>
<path d="M662.21 209.38L674.19 221.84L656.13 208.86L662.21 209.38Z" fill="#E3DFE5"/>
<path d="M662.21 209.38L656.13 208.86L645.75 198.15L645.99 198.31L662.21 209.38Z" fill="#E8E5E6"/>
<path d="M516.66 304.54L494.1 292.87L486.75 281.59L498.18 291.83L515.28 303.3L516.66 304.54Z" fill="#D5D1DD"/>
<path d="M498.18 291.83L486.75 281.59L481.31 266.61L498.18 291.83Z" fill="#E2DEE5"/>
<path d="M481.31 266.61L486.75 281.59L477.37 270.85L481.31 266.61Z" fill="#E0DCE4"/>
<path d="M477.37 270.85L486.75 281.59L494.1 292.87L477.37 270.85Z" fill="#D0CBDA"/>
<path d="M661.96 294.94L657.36 261.99L680.48 270.57L661.96 294.94Z" fill="#F3F1ED"/>
<path d="M515.28 303.3L498.18 291.83L514.36 302.47L515.28 303.3Z" fill="#CECADA"/>
<path d="M514.36 302.47L498.18 291.83L494.89 269.57L514.36 302.47Z" fill="#DFDCE4"/>
<path d="M661.19 307.14L661.96 294.94L680.48 270.57L661.19 307.14Z" fill="#CECADA"/>
<path d="M685.86 250.81L679.24 254.96L679.05 236.67L685.86 250.81Z" fill="#CECADA"/>
<path d="M679.05 236.67L679.24 254.96L654.61 227.18L679.05 236.67Z" fill="#FFFFF2"/>
<path d="M679.05 236.67L654.61 227.18L656.13 208.86L679.05 236.67Z" fill="#FFFFF2"/>
<path d="M656.13 208.86L654.61 227.18L619.98 225.16L656.13 208.86Z" fill="#FFFFF2"/>
<path d="M656.13 208.86L619.98 225.16L631.18 200.15L656.13 208.86Z" fill="#FFFFF2"/>
<path d="M656.13 208.86L631.18 200.15L645.75 198.15L656.13 208.86Z" fill="#F3F0EC"/>
<path d="M581.5 333.52L561.1 336.65L589.06 331.68L581.5 333.52Z" fill="#CECADA"/>
<path d="M589.06 331.68L561.1 336.65L536.91 312.1L589.06 331.68Z" fill="#D5D1DE"/>
<path d="M619.98 225.16L624.08 274.46L590.66 214.06L619.98 225.16Z" fill="#FFFFF2"/>
<path d="M590.66 214.06L624.08 274.46L587.13 284.45L590.66 214.06Z" fill="#FFFFF2"/>
<path d="M645.75 198.15L631.18 200.15L632.48 183.72L645.75 198.15Z" fill="#F1EFEB"/>
<path d="M645.75 198.15L632.48 183.72L645.99 198.31L645.75 198.15Z" fill="#D7D2DF"/>
<path d="M634.47 319.13L639.48 323.44L602.02 318.47L634.47 319.13Z" fill="#CECADA"/>
<path d="M624.08 274.46L634.47 319.13L587.13 284.45L624.08 274.46Z" fill="#FEFEF2"/>
<path d="M587.13 284.45L634.47 319.13L602.02 318.47L587.13 284.45Z" fill="#E4E0E5"/>
<path d="M590.66 214.06L587.13 284.45L557.16 214.6L590.66 214.06Z" fill="#FFFFF2"/>
<path d="M590.66 214.06L557.16 214.6L603.86 189.62L590.66 214.06Z" fill="#FFFFF2"/>
<path d="M590.66 214.06L603.86 189.62L631.18 200.15L590.66 214.06Z" fill="#FFFFF2"/>
<path d="M603.86 189.62L557.16 214.6L572.23 189.96L603.86 189.62Z" fill="#FFFFF2"/>
<path d="M603.86 189.62L572.23 189.96L602.93 187.66L603.86 189.62Z" fill="#F1EFEC"/>
<path d="M631.18 200.15L603.86 189.62L632.48 183.72L631.18 200.15Z" fill="#F6F4ED"/>
<path d="M561.1 336.65L535.05 321.09L516.66 304.54L515.28 303.3L514.36 302.47L561.1 336.65Z" fill="#CECADA"/>
<path d="M587.13 284.45L602.02 318.47L552.62 289.77L587.13 284.45Z" fill="#E3DFE5"/>
<path d="M587.13 284.45L552.62 289.77L557.16 214.6L587.13 284.45Z" fill="#FFFFF2"/>
<path d="M619.98 225.16L590.66 214.06L631.18 200.15L619.98 225.16Z" fill="#FFFFF2"/>
<path d="M572.23 189.96L557.16 214.6L505.55 215.56L572.23 189.96Z" fill="#FFFFF2"/>
<path d="M572.23 189.96L505.55 215.56L528.6 188.94L572.23 189.96Z" fill="#FFFFF2"/>
<path d="M505.55 215.56L557.16 214.6L552.62 289.77L505.55 215.56Z" fill="#FFFFF2"/>
<path d="M528.6 188.94L505.55 215.56L489.77 229.25L528.6 188.94Z" fill="#F9F6F0"/>
<path d="M489.77 229.25L505.55 215.56L506.71 283.02L489.77 229.25Z" fill="#FBFAF0"/>
<path d="M506.71 283.02L505.55 215.56L552.62 289.77L506.71 283.02Z" fill="#FFFFF2"/>
<path d="M506.71 283.02L552.62 289.77L571.08 316.29L506.71 283.02Z" fill="#DEDAE3"/>
<path d="M571.08 316.29L552.62 289.77L602.02 318.47L571.08 316.29Z" fill="#DDD9E3"/>
<path d="M571.08 316.29L602.02 318.47L615.12 323.46L571.08 316.29Z" fill="#CECADA"/>
<path d="M615.12 323.46L602.02 318.47L639.48 323.44L615.12 323.46Z" fill="#CECADA"/>
<path d="M481.31 266.61L479.47 252.86L486.95 240.65L481.31 266.61Z" fill="#F3F0EC"/>
<path d="M486.95 240.65L479.47 252.86L487.89 236.83L486.95 240.65Z" fill="#F3F1ED"/>
<path d="M602.93 187.66L632.48 183.72L603.86 189.62L602.93 187.66Z" fill="#F3F1ED"/>
<path d="M481.31 266.61L486.95 240.65L485.91 266.74L481.31 266.61Z" fill="#F0EEEB"/>
<path d="M485.91 266.74L486.95 240.65L494.89 269.57L485.91 266.74Z" fill="#F9F7F0"/>
<path d="M485.91 266.74L494.89 269.57L498.18 291.83L485.91 266.74Z" fill="#E0DCE4"/>
<path d="M485.91 266.74L498.18 291.83L481.31 266.61L485.91 266.74Z" fill="#DCD7E2"/>
</g>
<g opacity="0.9" clip-path="url(#clip2_617_2813)" filter="url(#filter2_if_617_2813)">
<path d="M607.49 102.12L610.51 108.76L603.3 111.99L598.04 81.4102L602.84 91.9302L607.49 102.12Z" fill="#F0ECEB"/>
<path d="M358.24 117.88L352.76 100.88L365.68 117.65L367.48 125.74L358.24 117.88Z" fill="#D3CFDC"/>
<path d="M367.48 125.74L365.68 117.65L363.69 94.3901L369.81 136.22L367.48 125.74Z" fill="#D7D2DF"/>
<path d="M369.81 136.22L363.69 94.3901L390.94 157.15L369.81 136.22Z" fill="#E6E2E6"/>
<path d="M365.68 117.65L352.76 100.88L354.18 80.6499L365.68 117.65Z" fill="#E9E6E8"/>
<path d="M354.18 80.6498L352.76 100.88L350 78.8398L354.18 80.6498Z" fill="#E1DDE5"/>
<path d="M416.54 184.94L395.88 169.21L390.94 157.15L416.54 184.94Z" fill="#CECADA"/>
<path d="M416.54 184.94L390.94 157.15L428.64 161.88L416.54 184.94Z" fill="#CECADA"/>
<path d="M458.49 181.66L453.32 183.39L416.54 184.94L450.92 181.44L458.49 181.66Z" fill="#CECADA"/>
<path d="M513.64 188.04L485.22 182.42L494.01 173.27L513.64 188.04Z" fill="#CECADA"/>
<path d="M379.15 40.62L400.68 12L380.91 47.87L374.45 46.86L379.15 40.62Z" fill="#F5F3ED"/>
<path d="M354.18 80.6499L350 78.8399L359.83 62.8799L354.18 80.6499Z" fill="#ECE8E9"/>
<path d="M433.32 22.1802L437.54 23.4902L444.46 31.5802L433.32 22.1802Z" fill="#F9F6EF"/>
<path d="M428.64 161.88L390.94 157.15L383.04 105.6L428.64 161.88Z" fill="#F0EEEB"/>
<path d="M450.92 181.44L416.54 184.94L428.64 161.88L450.92 181.44Z" fill="#CECADA"/>
<path d="M473.67 40.2002L492.22 49.4202L481.89 54.3302L469.61 52.8102L464.88 48.8302L473.67 40.2002Z" fill="#F7F5EF"/>
<path d="M450.92 181.44L428.64 161.88L464.76 164.88L450.92 181.44Z" fill="#CECADA"/>
<path d="M546.54 190.42L513.64 188.04L562.01 177.87L546.54 190.42Z" fill="#CECADA"/>
<path d="M546.54 190.42L562.01 177.87L589.69 179.53L546.54 190.42Z" fill="#CECADA"/>
<path d="M481.89 54.3301L492.22 49.4201L525.05 33.8301L470.06 77.7301L474.5 57.8401L475.18 57.5201L481.89 54.3301Z" fill="#FDFCF2"/>
<path d="M470.06 77.7301L525.05 33.8301L518.09 96.6801L470.06 77.7301Z" fill="#FFFFF2"/>
<path d="M470.06 77.73L518.09 96.68L495.15 146.86L470.06 77.73Z" fill="#FFFFF2"/>
<path d="M495.15 146.86L518.09 96.6802L542.45 145.47L495.15 146.86Z" fill="#FFFFF2"/>
<path d="M495.15 146.86L542.45 145.47L530.24 169.52L495.15 146.86Z" fill="#D5D1DD"/>
<path d="M513.64 188.04L494.01 173.27L530.24 169.52L513.64 188.04Z" fill="#CECADA"/>
<path d="M458.49 181.66L450.92 181.44L464.76 164.88L485.22 182.42L458.49 181.66Z" fill="#CECADA"/>
<path d="M485.22 182.42L464.76 164.88L494.01 173.27L485.22 182.42Z" fill="#CECADA"/>
<path d="M494.01 173.27L464.76 164.88L456.16 131.68L494.01 173.27Z" fill="#D3CFDC"/>
<path d="M366.16 51.9001L379.15 40.6201L374.45 46.8601L366.16 51.9001Z" fill="#F4F2ED"/>
<path d="M366.16 51.8999L374.45 46.8599L356.72 83.6199L366.16 51.8999Z" fill="#EFEBEA"/>
<path d="M366.16 51.8999L356.72 83.6199L359.83 62.8799L366.16 51.8999Z" fill="#EAE6E8"/>
<path d="M437.54 23.4902L473.67 40.2002L464.88 48.8302L444.46 31.5802L437.54 23.4902Z" fill="#F0ECEB"/>
<path d="M395.88 169.21L369.81 136.22L390.94 157.15L395.88 169.21Z" fill="#CECADA"/>
<path d="M374.45 46.8599L380.91 47.8699L383.04 105.6L374.45 46.8599Z" fill="#DFDCE4"/>
<path d="M469.61 52.8101L481.89 54.3301L475.18 57.5201L469.61 52.8101Z" fill="#F9F6F0"/>
<path d="M359.83 62.8799L356.72 83.6199L354.18 80.6499L359.83 62.8799Z" fill="#EAE6E8"/>
<path d="M354.18 80.6499L356.72 83.6199L365.68 117.65L354.18 80.6499Z" fill="#D2CEDC"/>
<path d="M365.68 117.65L356.72 83.6201L363.69 94.3901L365.68 117.65Z" fill="#D6D1DF"/>
<path d="M363.69 94.3899L356.72 83.6199L374.45 46.8599L363.69 94.3899Z" fill="#F2F0EC"/>
<path d="M363.69 94.3899L374.45 46.8599L383.04 105.6L363.69 94.3899Z" fill="#FCFBF2"/>
<path d="M363.69 94.3901L383.04 105.6L390.94 157.15L363.69 94.3901Z" fill="#E2DEE5"/>
<path d="M494.01 173.27L456.16 131.68L495.15 146.86L494.01 173.27Z" fill="#D4D0DD"/>
<path d="M495.15 146.86L456.16 131.68L470.06 77.73L495.15 146.86Z" fill="#FFFFF2"/>
<path d="M494.01 173.27L495.15 146.86L530.24 169.52L494.01 173.27Z" fill="#CECADA"/>
<path d="M470.06 77.7302L456.16 131.68L423.07 73.9302L470.06 77.7302Z" fill="#FEFEF2"/>
<path d="M470.06 77.7298L423.07 73.9298L474.5 57.8398L470.06 77.7298Z" fill="#FFFFF2"/>
<path d="M474.5 57.84L423.07 73.93L425.72 15.75L474.5 57.84Z" fill="#FFFFF2"/>
<path d="M474.5 57.84L425.72 15.75L433.32 22.18L444.46 31.58L464.88 48.83L469.61 52.81L475.18 57.52L474.5 57.84Z" fill="#E6E2E6"/>
<path d="M513.64 188.04L530.24 169.52L539.05 177.94L513.64 188.04Z" fill="#CECADA"/>
<path d="M539.05 177.94L530.24 169.52L571.6 155.71L539.05 177.94Z" fill="#CECADA"/>
<path d="M571.6 155.71L530.24 169.52L579.58 142.1L571.6 155.71Z" fill="#CECADA"/>
<path d="M571.6 155.71L579.58 142.1L598.51 138.15L571.6 155.71Z" fill="#CECADA"/>
<path d="M571.6 155.71L598.51 138.15L569.91 161.53L571.6 155.71Z" fill="#CECADA"/>
<path d="M571.6 155.71L569.91 161.53L539.05 177.94L571.6 155.71Z" fill="#CECADA"/>
<path d="M598.51 138.15L579.58 142.1L590.32 125.14L598.51 138.15Z" fill="#CECADA"/>
<path d="M598.51 138.15L590.32 125.14L603.3 111.99L598.51 138.15Z" fill="#CECADA"/>
<path d="M603.3 111.99L590.32 125.14L584.59 85.0898L603.3 111.99Z" fill="#FFFFF2"/>
<path d="M513.64 188.04L539.05 177.94L562.01 177.87L513.64 188.04Z" fill="#CECADA"/>
<path d="M562.01 177.87L539.05 177.94L569.91 161.53L562.01 177.87Z" fill="#CECADA"/>
<path d="M456.16 131.68L464.76 164.88L419.27 120.66L456.16 131.68Z" fill="#D2CEDC"/>
<path d="M428.64 161.88L383.04 105.6L419.27 120.66L428.64 161.88Z" fill="#DCD8E2"/>
<path d="M428.64 161.88L419.27 120.66L464.76 164.88L428.64 161.88Z" fill="#E1DDE5"/>
<path d="M590.32 125.14L579.58 142.1L562.57 110.95L590.32 125.14Z" fill="#FEFEF2"/>
<path d="M590.32 125.14L562.57 110.95L584.59 85.0898L590.32 125.14Z" fill="#FFFFF2"/>
<path d="M569.91 161.53L598.51 138.15L576.69 159.06L569.91 161.53Z" fill="#CECADA"/>
<path d="M380.91 47.87L400.68 12L425.72 15.75L380.91 47.87Z" fill="#FFFFF2"/>
<path d="M589.69 179.53L562.01 177.87L587.53 161.78L589.69 179.53Z" fill="#CECADA"/>
<path d="M589.69 179.53L587.53 161.78L609.98 129.36L589.69 179.53Z" fill="#CECADA"/>
<path d="M579.58 142.1L530.24 169.52L542.45 145.47L579.58 142.1Z" fill="#CECADA"/>
<path d="M579.58 142.1L542.45 145.47L562.57 110.95L579.58 142.1Z" fill="#FEFDF2"/>
<path d="M562.57 110.95L542.45 145.47L518.09 96.6802L562.57 110.95Z" fill="#FFFFF2"/>
<path d="M562.57 110.95L518.09 96.6798L584.59 85.0898L562.57 110.95Z" fill="#FFFFF2"/>
<path d="M608.59 114.23L609.98 129.36L607.63 116.93L607.71 116.76L608.59 114.23Z" fill="#CECADA"/>
<path d="M608.59 114.23L607.71 116.76L607.63 116.93L602.65 128.53L598.51 138.15L610.51 108.76L608.59 114.23Z" fill="#CECADA"/>
<path d="M602.65 128.53L607.63 116.93L609.98 129.36L602.65 128.53Z" fill="#CECADA"/>
<path d="M610.51 108.76L598.51 138.15L603.3 111.99L610.51 108.76Z" fill="#CECADA"/>
<path d="M598.51 138.15L602.65 128.53L609.98 129.36L587.53 161.78L596.94 139.7L598.51 138.15Z" fill="#CECADA"/>
<path d="M596.94 139.7L587.53 161.78L596.11 140.51L596.94 139.7Z" fill="#CECADA"/>
<path d="M598.51 138.15L596.94 139.7L596.11 140.51L588.2 148.27L576.69 159.06L598.51 138.15Z" fill="#CECADA"/>
<path d="M576.69 159.06L588.2 148.27L562.01 177.87L576.69 159.06Z" fill="#CECADA"/>
<path d="M576.69 159.06L562.01 177.87L569.91 161.53L576.69 159.06Z" fill="#CECADA"/>
<path d="M562.01 177.87L588.2 148.27L587.53 161.78L562.01 177.87Z" fill="#CECADA"/>
<path d="M587.53 161.78L588.2 148.27L596.11 140.51L587.53 161.78Z" fill="#CECADA"/>
<path d="M380.91 47.87L425.72 15.75L423.07 73.93L380.91 47.87Z" fill="#FFFFF2"/>
<path d="M380.91 47.8701L423.07 73.9301L419.27 120.66L380.91 47.8701Z" fill="#F9F7F0"/>
<path d="M419.27 120.66L423.07 73.9302L456.16 131.68L419.27 120.66Z" fill="#FCFBF2"/>
<path d="M380.91 47.8701L419.27 120.66L383.04 105.6L380.91 47.8701Z" fill="#FAF8F0"/>
<path d="M518.09 96.6801L525.05 33.8301L548.8 61.4601L518.09 96.6801Z" fill="#FFFFF2"/>
<path d="M548.8 61.4601L525.05 33.8301L577.63 60.1001L548.8 61.4601Z" fill="#FCFAF2"/>
<path d="M548.8 61.4601L577.63 60.1001L598.04 81.4101L548.8 61.4601Z" fill="#FCFBF2"/>
<path d="M598.04 81.4101L577.63 60.1001L601.38 84.6501L598.04 81.4101Z" fill="#E0DCE4"/>
<path d="M601.38 84.6501L577.63 60.1001L605.3 78.2001L601.38 84.6501Z" fill="#E3DFE5"/>
<path d="M518.09 96.68L548.8 61.46L584.59 85.09L518.09 96.68Z" fill="#FFFFF2"/>
<path d="M548.8 61.46L598.04 81.41L584.59 85.09L548.8 61.46Z" fill="#F9F7F0"/>
<path d="M584.59 85.0901L598.04 81.4102L603.3 111.99L584.59 85.0901Z" fill="#F1EFEB"/>
<path d="M598.04 81.4102L601.38 84.6502L602.84 91.9302L598.04 81.4102Z" fill="#D1CCDB"/>
<path d="M602.84 91.9302L601.38 84.6502L605.3 78.2002L607.49 102.12L602.84 91.9302Z" fill="#CECADA"/>
</g>
<g opacity="0.9" clip-path="url(#clip3_617_2813)" filter="url(#filter3_if_617_2813)">
<path d="M403.49 158.12L406.51 164.76L399.3 167.99L394.04 137.41L398.84 147.93L403.49 158.12Z" fill="#F0ECEB"/>
<path d="M154.24 173.88L148.76 156.88L161.68 173.65L163.48 181.74L154.24 173.88Z" fill="#D3CFDC"/>
<path d="M163.48 181.74L161.68 173.65L159.69 150.39L165.81 192.22L163.48 181.74Z" fill="#D7D2DF"/>
<path d="M165.81 192.22L159.69 150.39L186.94 213.15L165.81 192.22Z" fill="#E6E2E6"/>
<path d="M161.68 173.65L148.76 156.88L150.18 136.65L161.68 173.65Z" fill="#E9E6E8"/>
<path d="M150.18 136.65L148.76 156.88L146 134.84L150.18 136.65Z" fill="#E1DDE5"/>
<path d="M212.54 240.94L191.88 225.21L186.94 213.15L212.54 240.94Z" fill="#CECADA"/>
<path d="M212.54 240.94L186.94 213.15L224.64 217.88L212.54 240.94Z" fill="#CECADA"/>
<path d="M254.49 237.66L249.32 239.39L212.54 240.94L246.92 237.44L254.49 237.66Z" fill="#CECADA"/>
<path d="M309.64 244.04L281.22 238.42L290.01 229.27L309.64 244.04Z" fill="#CECADA"/>
<path d="M175.15 96.62L196.68 68L176.91 103.87L170.45 102.86L175.15 96.62Z" fill="#F5F3ED"/>
<path d="M150.18 136.65L146 134.84L155.83 118.88L150.18 136.65Z" fill="#ECE8E9"/>
<path d="M229.32 78.1802L233.54 79.4902L240.46 87.5802L229.32 78.1802Z" fill="#F9F6EF"/>
<path d="M224.64 217.88L186.94 213.15L179.04 161.6L224.64 217.88Z" fill="#F0EEEB"/>
<path d="M246.92 237.44L212.54 240.94L224.64 217.88L246.92 237.44Z" fill="#CECADA"/>
<path d="M269.67 96.2002L288.22 105.42L277.89 110.33L265.61 108.81L260.88 104.83L269.67 96.2002Z" fill="#F7F5EF"/>
<path d="M246.92 237.44L224.64 217.88L260.76 220.88L246.92 237.44Z" fill="#CECADA"/>
<path d="M342.54 246.42L309.64 244.04L358.01 233.87L342.54 246.42Z" fill="#CECADA"/>
<path d="M342.54 246.42L358.01 233.87L385.69 235.53L342.54 246.42Z" fill="#CECADA"/>
<path d="M277.89 110.33L288.22 105.42L321.05 89.8301L266.06 133.73L270.5 113.84L271.18 113.52L277.89 110.33Z" fill="#FDFCF2"/>
<path d="M266.06 133.73L321.05 89.8301L314.09 152.68L266.06 133.73Z" fill="#FFFFF2"/>
<path d="M266.06 133.73L314.09 152.68L291.15 202.86L266.06 133.73Z" fill="#FFFFF2"/>
<path d="M291.15 202.86L314.09 152.68L338.45 201.47L291.15 202.86Z" fill="#FFFFF2"/>
<path d="M291.15 202.86L338.45 201.47L326.24 225.52L291.15 202.86Z" fill="#D5D1DD"/>
<path d="M309.64 244.04L290.01 229.27L326.24 225.52L309.64 244.04Z" fill="#CECADA"/>
<path d="M254.49 237.66L246.92 237.44L260.76 220.88L281.22 238.42L254.49 237.66Z" fill="#CECADA"/>
<path d="M281.22 238.42L260.76 220.88L290.01 229.27L281.22 238.42Z" fill="#CECADA"/>
<path d="M290.01 229.27L260.76 220.88L252.16 187.68L290.01 229.27Z" fill="#D3CFDC"/>
<path d="M162.16 107.9L175.15 96.6201L170.45 102.86L162.16 107.9Z" fill="#F4F2ED"/>
<path d="M162.16 107.9L170.45 102.86L152.72 139.62L162.16 107.9Z" fill="#EFEBEA"/>
<path d="M162.16 107.9L152.72 139.62L155.83 118.88L162.16 107.9Z" fill="#EAE6E8"/>
<path d="M233.54 79.4902L269.67 96.2002L260.88 104.83L240.46 87.5802L233.54 79.4902Z" fill="#F0ECEB"/>
<path d="M191.88 225.21L165.81 192.22L186.94 213.15L191.88 225.21Z" fill="#CECADA"/>
<path d="M170.45 102.86L176.91 103.87L179.04 161.6L170.45 102.86Z" fill="#DFDCE4"/>
<path d="M265.61 108.81L277.89 110.33L271.18 113.52L265.61 108.81Z" fill="#F9F6F0"/>
<path d="M155.83 118.88L152.72 139.62L150.18 136.65L155.83 118.88Z" fill="#EAE6E8"/>
<path d="M150.18 136.65L152.72 139.62L161.68 173.65L150.18 136.65Z" fill="#D2CEDC"/>
<path d="M161.68 173.65L152.72 139.62L159.69 150.39L161.68 173.65Z" fill="#D6D1DF"/>
<path d="M159.69 150.39L152.72 139.62L170.45 102.86L159.69 150.39Z" fill="#F2F0EC"/>
<path d="M159.69 150.39L170.45 102.86L179.04 161.6L159.69 150.39Z" fill="#FCFBF2"/>
<path d="M159.69 150.39L179.04 161.6L186.94 213.15L159.69 150.39Z" fill="#E2DEE5"/>
<path d="M290.01 229.27L252.16 187.68L291.15 202.86L290.01 229.27Z" fill="#D4D0DD"/>
<path d="M291.15 202.86L252.16 187.68L266.06 133.73L291.15 202.86Z" fill="#FFFFF2"/>
<path d="M290.01 229.27L291.15 202.86L326.24 225.52L290.01 229.27Z" fill="#CECADA"/>
<path d="M266.06 133.73L252.16 187.68L219.07 129.93L266.06 133.73Z" fill="#FEFEF2"/>
<path d="M266.06 133.73L219.07 129.93L270.5 113.84L266.06 133.73Z" fill="#FFFFF2"/>
<path d="M270.5 113.84L219.07 129.93L221.72 71.75L270.5 113.84Z" fill="#FFFFF2"/>
<path d="M270.5 113.84L221.72 71.75L229.32 78.18L240.46 87.58L260.88 104.83L265.61 108.81L271.18 113.52L270.5 113.84Z" fill="#E6E2E6"/>
<path d="M309.64 244.04L326.24 225.52L335.05 233.94L309.64 244.04Z" fill="#CECADA"/>
<path d="M335.05 233.94L326.24 225.52L367.6 211.71L335.05 233.94Z" fill="#CECADA"/>
<path d="M367.6 211.71L326.24 225.52L375.58 198.1L367.6 211.71Z" fill="#CECADA"/>
<path d="M367.6 211.71L375.58 198.1L394.51 194.15L367.6 211.71Z" fill="#CECADA"/>
<path d="M367.6 211.71L394.51 194.15L365.91 217.53L367.6 211.71Z" fill="#CECADA"/>
<path d="M367.6 211.71L365.91 217.53L335.05 233.94L367.6 211.71Z" fill="#CECADA"/>
<path d="M394.51 194.15L375.58 198.1L386.32 181.14L394.51 194.15Z" fill="#CECADA"/>
<path d="M394.51 194.15L386.32 181.14L399.3 167.99L394.51 194.15Z" fill="#CECADA"/>
<path d="M399.3 167.99L386.32 181.14L380.59 141.09L399.3 167.99Z" fill="#FFFFF2"/>
<path d="M309.64 244.04L335.05 233.94L358.01 233.87L309.64 244.04Z" fill="#CECADA"/>
<path d="M358.01 233.87L335.05 233.94L365.91 217.53L358.01 233.87Z" fill="#CECADA"/>
<path d="M252.16 187.68L260.76 220.88L215.27 176.66L252.16 187.68Z" fill="#D2CEDC"/>
<path d="M224.64 217.88L179.04 161.6L215.27 176.66L224.64 217.88Z" fill="#DCD8E2"/>
<path d="M224.64 217.88L215.27 176.66L260.76 220.88L224.64 217.88Z" fill="#E1DDE5"/>
<path d="M386.32 181.14L375.58 198.1L358.57 166.95L386.32 181.14Z" fill="#FEFEF2"/>
<path d="M386.32 181.14L358.57 166.95L380.59 141.09L386.32 181.14Z" fill="#FFFFF2"/>
<path d="M365.91 217.53L394.51 194.15L372.69 215.06L365.91 217.53Z" fill="#CECADA"/>
<path d="M176.91 103.87L196.68 68L221.72 71.75L176.91 103.87Z" fill="#FFFFF2"/>
<path d="M385.69 235.53L358.01 233.87L383.53 217.78L385.69 235.53Z" fill="#CECADA"/>
<path d="M385.69 235.53L383.53 217.78L405.98 185.36L385.69 235.53Z" fill="#CECADA"/>
<path d="M375.58 198.1L326.24 225.52L338.45 201.47L375.58 198.1Z" fill="#CECADA"/>
<path d="M375.58 198.1L338.45 201.47L358.57 166.95L375.58 198.1Z" fill="#FEFDF2"/>
<path d="M358.57 166.95L338.45 201.47L314.09 152.68L358.57 166.95Z" fill="#FFFFF2"/>
<path d="M358.57 166.95L314.09 152.68L380.59 141.09L358.57 166.95Z" fill="#FFFFF2"/>
<path d="M404.59 170.23L405.98 185.36L403.63 172.93L403.71 172.76L404.59 170.23Z" fill="#CECADA"/>
<path d="M404.59 170.23L403.71 172.76L403.63 172.93L398.65 184.53L394.51 194.15L406.51 164.76L404.59 170.23Z" fill="#CECADA"/>
<path d="M398.65 184.53L403.63 172.93L405.98 185.36L398.65 184.53Z" fill="#CECADA"/>
<path d="M406.51 164.76L394.51 194.15L399.3 167.99L406.51 164.76Z" fill="#CECADA"/>
<path d="M394.51 194.15L398.65 184.53L405.98 185.36L383.53 217.78L392.94 195.7L394.51 194.15Z" fill="#CECADA"/>
<path d="M392.94 195.7L383.53 217.78L392.11 196.51L392.94 195.7Z" fill="#CECADA"/>
<path d="M394.51 194.15L392.94 195.7L392.11 196.51L384.2 204.27L372.69 215.06L394.51 194.15Z" fill="#CECADA"/>
<path d="M372.69 215.06L384.2 204.27L358.01 233.87L372.69 215.06Z" fill="#CECADA"/>
<path d="M372.69 215.06L358.01 233.87L365.91 217.53L372.69 215.06Z" fill="#CECADA"/>
<path d="M358.01 233.87L384.2 204.27L383.53 217.78L358.01 233.87Z" fill="#CECADA"/>
<path d="M383.53 217.78L384.2 204.27L392.11 196.51L383.53 217.78Z" fill="#CECADA"/>
<path d="M176.91 103.87L221.72 71.75L219.07 129.93L176.91 103.87Z" fill="#FFFFF2"/>
<path d="M176.91 103.87L219.07 129.93L215.27 176.66L176.91 103.87Z" fill="#F9F7F0"/>
<path d="M215.27 176.66L219.07 129.93L252.16 187.68L215.27 176.66Z" fill="#FCFBF2"/>
<path d="M176.91 103.87L215.27 176.66L179.04 161.6L176.91 103.87Z" fill="#FAF8F0"/>
<path d="M314.09 152.68L321.05 89.8301L344.8 117.46L314.09 152.68Z" fill="#FFFFF2"/>
<path d="M344.8 117.46L321.05 89.8301L373.63 116.1L344.8 117.46Z" fill="#FCFAF2"/>
<path d="M344.8 117.46L373.63 116.1L394.04 137.41L344.8 117.46Z" fill="#FCFBF2"/>
<path d="M394.04 137.41L373.63 116.1L397.38 140.65L394.04 137.41Z" fill="#E0DCE4"/>
<path d="M397.38 140.65L373.63 116.1L401.3 134.2L397.38 140.65Z" fill="#E3DFE5"/>
<path d="M314.09 152.68L344.8 117.46L380.59 141.09L314.09 152.68Z" fill="#FFFFF2"/>
<path d="M344.8 117.46L394.04 137.41L380.59 141.09L344.8 117.46Z" fill="#F9F7F0"/>
<path d="M380.59 141.09L394.04 137.41L399.3 167.99L380.59 141.09Z" fill="#F1EFEB"/>
<path d="M394.04 137.41L397.38 140.65L398.84 147.93L394.04 137.41Z" fill="#D1CCDB"/>
<path d="M398.84 147.93L397.38 140.65L401.3 134.2L403.49 158.12L398.84 147.93Z" fill="#CECADA"/>
</g>
<defs>
<filter id="filter0_if_617_2813" x="0.7" y="154.7" width="468.6" height="311.6" filterUnits="userSpaceOnUse" color-interpolation-filters="sRGB">
<feFlood flood-opacity="0" result="BackgroundImageFix"/>
<feBlend mode="normal" in="SourceGraphic" in2="BackgroundImageFix" result="shape"/>
<feColorMatrix in="SourceAlpha" type="matrix" values="0 0 0 0 0 0 0 0 0 0 0 0 0 0 0 0 0 0 127 0" result="hardAlpha"/>
<feOffset dy="-119"/>
<feGaussianBlur stdDeviation="5.2"/>
<feComposite in2="hardAlpha" operator="arithmetic" k2="-1" k3="1"/>
<feColorMatrix type="matrix" values="0 0 0 0 0 0 0 0 0 0 0 0 0 0 0 0 0 0 0.25 0"/>
<feBlend mode="normal" in2="shape" result="effect1_innerShadow_617_2813"/>
<feGaussianBlur stdDeviation="5.65" result="effect2_foregroundBlur_617_2813"/>
</filter>
<filter id="filter1_if_617_2813" x="301.7" y="151.7" width="395.46" height="206.38" filterUnits="userSpaceOnUse" color-interpolation-filters="sRGB">
<feFlood flood-opacity="0" result="BackgroundImageFix"/>
<feBlend mode="normal" in="SourceGraphic" in2="BackgroundImageFix" result="shape"/>
<feColorMatrix in="SourceAlpha" type="matrix" values="0 0 0 0 0 0 0 0 0 0 0 0 0 0 0 0 0 0 127 0" result="hardAlpha"/>
<feOffset dy="-56"/>
<feGaussianBlur stdDeviation="5.2"/>
<feComposite in2="hardAlpha" operator="arithmetic" k2="-1" k3="1"/>
<feColorMatrix type="matrix" values="0 0 0 0 0 0 0 0 0 0 0 0 0 0 0 0 0 0 0.25 0"/>
<feBlend mode="normal" in2="shape" result="effect1_innerShadow_617_2813"/>
<feGaussianBlur stdDeviation="5.65" result="effect2_foregroundBlur_617_2813"/>
</filter>
<filter id="filter2_if_617_2813" x="338.7" y="0.7" width="283.11" height="201.02" filterUnits="userSpaceOnUse" color-interpolation-filters="sRGB">
<feFlood flood-opacity="0" result="BackgroundImageFix"/>
<feBlend mode="normal" in="SourceGraphic" in2="BackgroundImageFix" result="shape"/>
<feColorMatrix in="SourceAlpha" type="matrix" values="0 0 0 0 0 0 0 0 0 0 0 0 0 0 0 0 0 0 127 0" result="hardAlpha"/>
<feOffset dy="-57"/>
<feGaussianBlur stdDeviation="5.2"/>
<feComposite in2="hardAlpha" operator="arithmetic" k2="-1" k3="1"/>
<feColorMatrix type="matrix" values="0 0 0 0 0 0 0 0 0 0 0 0 0 0 0 0 0 0 0.25 0"/>
<feBlend mode="normal" in2="shape" result="effect1_innerShadow_617_2813"/>
<feGaussianBlur stdDeviation="5.65" result="effect2_foregroundBlur_617_2813"/>
</filter>
<filter id="filter3_if_617_2813" x="134.7" y="56.7" width="283.11" height="201.02" filterUnits="userSpaceOnUse" color-interpolation-filters="sRGB">
<feFlood flood-opacity="0" result="BackgroundImageFix"/>
<feBlend mode="normal" in="SourceGraphic" in2="BackgroundImageFix" result="shape"/>
<feColorMatrix in="SourceAlpha" type="matrix" values="0 0 0 0 0 0 0 0 0 0 0 0 0 0 0 0 0 0 127 0" result="hardAlpha"/>
<feOffset dy="-57"/>
<feGaussianBlur stdDeviation="5.2"/>
<feComposite in2="hardAlpha" operator="arithmetic" k2="-1" k3="1"/>
<feColorMatrix type="matrix" values="0 0 0 0 0 0 0 0 0 0 0 0 0 0 0 0 0 0 0.25 0"/>
<feBlend mode="normal" in2="shape" result="effect1_innerShadow_617_2813"/>
<feGaussianBlur stdDeviation="5.65" result="effect2_foregroundBlur_617_2813"/>
</filter>
<clipPath id="clip0_617_2813">
<rect width="446" height="289" fill="white" transform="translate(12 166)"/>
</clipPath>
<clipPath id="clip1_617_2813">
<rect width="372.86" height="183.78" fill="white" transform="translate(313 163)"/>
</clipPath>
<clipPath id="clip2_617_2813">
<rect width="260.51" height="178.42" fill="white" transform="translate(350 12)"/>
</clipPath>
<clipPath id="clip3_617_2813">
<rect width="260.51" height="178.42" fill="white" transform="translate(146 68)"/>
</clipPath>
</defs>
</svg>
