<svg width="317" height="292" viewBox="0 0 317 292" fill="none" xmlns="http://www.w3.org/2000/svg">
<path fill-rule="evenodd" clip-rule="evenodd" d="M248 23.5C248 10.5213 237.479 0 224.5 0H192C178.745 0 168 10.7452 168 24V56C168 69.2548 178.745 80 192 80H213.5C226.479 80 237 90.5213 237 103.5C237 116.479 247.521 127 260.5 127H293C306.255 127 317 116.255 317 103V71C317 57.7452 306.255 47 293 47H271.5C258.521 47 248 36.4787 248 23.5ZM0 104C0 90.7452 10.7452 80 24 80H56C69.2548 80 80 90.7452 80 104V125C80 138.255 90.7452 149 104 149H127C140.255 149 151 159.745 151 173V205C151 218.255 140.255 229 127 229H104C90.7452 229 80 239.745 80 253V268C80 281.255 69.2548 292 56 292H24C10.7452 292 0 281.255 0 268V236C0 222.745 10.7452 212 24 212H47C60.2548 212 71 201.255 71 188V184C71 170.745 60.2548 160 47 160H24C10.7452 160 0 149.255 0 136V104Z" fill="#A9D8BB"/>
</svg>
