<svg width="317" height="292" viewBox="0 0 317 292" fill="none" xmlns="http://www.w3.org/2000/svg">
<path fill-rule="evenodd" clip-rule="evenodd" d="M69 23.5C69 10.5213 79.5213 0 92.5 0H125C138.255 0 149 10.7452 149 24V56C149 69.2548 138.255 80 125 80H103.5C90.5213 80 80 90.5213 80 103.5C80 116.479 69.4787 127 56.5 127H24C10.7452 127 0 116.255 0 103V71C0 57.7452 10.7452 47 24 47H45.5C58.4787 47 69 36.4787 69 23.5ZM317 104C317 90.7452 306.255 80 293 80H261C247.745 80 237 90.7452 237 104V136C237 149.255 247.745 160 261 160H293C306.255 160 317 149.255 317 136V104ZM243 198.5C243 191.044 236.956 185 229.5 185H187C173.745 185 163 195.745 163 209V241C163 254.255 173.745 265 187 265H223.5C230.956 265 237 271.044 237 278.5C237 285.956 243.044 292 250.5 292H293C306.255 292 317 281.255 317 268V236C317 222.745 306.255 212 293 212H256.5C249.044 212 243 205.956 243 198.5Z" fill="#131D17"/>
</svg>
