<svg width="317" height="292" viewBox="0 0 317 292" fill="none" xmlns="http://www.w3.org/2000/svg">
<path fill-rule="evenodd" clip-rule="evenodd" d="M149 24C149 10.7452 138.255 0 125 0H92.5C79.5213 0 69 10.5213 69 23.5C69 36.4787 58.4787 47 45.5 47H24C10.7452 47 0 57.7452 0 71V103C0 116.255 10.7452 127 24 127H56.5C69.4787 127 80 116.479 80 103.5C80 90.5213 90.5213 80 103.5 80H125C138.255 80 149 69.2548 149 56V24ZM237 104C237 90.7452 247.745 80 261 80H293C306.255 80 317 90.7452 317 104V136C317 149.255 306.255 160 293 160H261C247.745 160 237 149.255 237 136V104ZM163 161C163 174.255 173.745 185 187 185H229.5C236.956 185 243 191.044 243 198.5C243 205.956 249.044 212 256.5 212H293C306.255 212 317 222.745 317 236V268C317 281.255 306.255 292 293 292H250.5C243.044 292 237 285.956 237 278.5C237 271.044 230.956 265 223.5 265H187C173.745 265 163 254.255 163 241V210C163 196.745 152.255 186 139 186H107C93.7452 186 83 175.255 83 162V130C83 116.745 93.7452 106 107 106H139C152.255 106 163 116.745 163 130V161Z" fill="#131D17"/>
</svg>
